<?xml version="1.0" standalone="no"?>
<!DOCTYPE svg PUBLIC "-//W3C//DTD SVG 1.1//EN" "http://www.w3.org/Graphics/SVG/1.1/DTD/svg11.dtd" >
<svg>
<metadata>
Created by FontForge 20090914 at Tue Oct 10 11:39:20 2017
 By www-data
</metadata>
<defs>
<font id="tableau-icons-01794bb3a5f1d9352899233b1443c8c2" horiz-adv-x="512" >
  <font-face 
    font-family="tableau-icons"
    font-weight="400"
    font-stretch="normal"
    units-per-em="512"
    panose-1="2 0 5 9 0 0 0 0 0 0"
    ascent="448"
    descent="-64"
    bbox="-4.99805 -67.9961 516.001 450.002"
    underline-thickness="25"
    underline-position="-52"
    unicode-range="U+F101-U+F190"
  />
<missing-glyph 
d="M17 0v341h136v-341h-136zM34 17h102v307h-102v-307z" />
    <glyph glyph-name=".notdef" 
d="M17 0v341h136v-341h-136zM34 17h102v307h-102v-307z" />
    <glyph glyph-name="access-big-data" unicode="&#xf101;" 
d="M206 286v48h307v-360h-433v199l21 -21v-156h391v290h-286zM459 316v-12c0 -5.33301 2.33301 -8 7 -8h6c4.66699 0 7 2.66699 7 8v12c0 4.66699 -2.33301 7 -7 7h-6c-4.66699 0 -7 -2.33301 -7 -7zM420 316v-12c0 -5.33301 2.66699 -8 8 -8h5c4.66699 0 7 2.66699 7 8v12
c0 4.66699 -2.33301 7 -7 7h-5c-5.33301 0 -8 -2.33301 -8 -7zM382 316v-12c0 -5.33301 2.66699 -8 8 -8h5c4.66699 0 7 2.66699 7 8v12c0 4.66699 -2.33301 7 -7 7h-5c-5.33301 0 -8 -2.33301 -8 -7zM446 238v-228h-46v228h46zM320 10v127h45v-127h-45zM235 10h1v208h45
v-208h-46zM144 10v124h45v-124h-45zM143 393c8.66699 0 16.666 -2.17188 23.999 -6.50488s13.166 -10.166 17.499 -17.499s6.5 -15.666 6.5 -24.999v-106c0 -9.33301 -1.5 -17.666 -4.5 -24.999s-7.66699 -13.166 -14 -17.499s-13.833 -6.5 -22.5 -6.5h-1v-52l-56 52h-43
c-9.33301 0 -17.666 2.16699 -24.999 6.5s-13.166 10.333 -17.499 18s-6.5 15.834 -6.5 24.501v106c0 14 4.66699 25.667 14 35s21 14 35 14h93zM105.999 363.995h-20l2 -103h16zM95.999 224.995c3.33301 0 6.16602 1.16699 8.49902 3.5s3.5 5 3.5 8
s-1.16699 5.66699 -3.5 8s-5.16602 3.5 -8.49902 3.5s-6.16602 -1.16699 -8.49902 -3.5s-3.5 -5 -3.5 -8s1.16699 -5.66699 3.5 -8s5.16602 -3.5 8.49902 -3.5z" />
    <glyph glyph-name="adobe-pdf" unicode="&#xf102;" 
d="M449 335v-395h-386v506c0 0.666992 0.333008 1 1 1h276zM411 335l-71 73v-73h71zM422 -31v341h-108v111h-223v-1v-451h331zM387 146c3.33301 -16 -3.33008 -28.001 -19.9971 -36.001c-14 -7.33301 -34.333 0.666992 -61 24c-36 -8.66699 -70.333 -20 -103 -34
c-15.333 -37.333 -31.666 -60.333 -48.999 -69c-11.333 -5.33301 -20.833 -3.83301 -28.5 4.5s-9.83398 17.166 -6.50098 26.499c2.66699 8 8.5 15.667 17.5 23s25.833 18 50.5 32c16.667 30.667 32 72.334 46 125.001c-2.66699 4 -5.33398 9.5 -8.00098 16.5s-5 15 -7 24
s-3 17.167 -3 24.5c0 10 2.66699 17.167 8 21.5s10.666 6.5 15.999 6.5s10.666 -2.33301 15.999 -7s8 -11 8 -19c0 -23.333 -3 -45.333 -9 -66c0.666992 -2 2.66699 -6.16699 6 -12.5l9.5 -18c3 -5.66699 8.33301 -13.667 16 -24s16.5 -21.166 26.5 -32.499
c46.667 6 71.667 2.66699 75 -10zM151.004 51.999c3.33301 2 6.83301 5.99902 10.5 11.999s6.5 11.333 8.5 16l3 7c-22 -11.333 -34 -20.666 -36 -27.999c-1.33301 -5.33301 -0.5 -8.83301 2.5 -10.5s6.83301 -0.5 11.5 3.5zM243.004 306.998c0 6 -1 9.33105 -3 9.99805
s-3.66699 -0.666016 -5 -3.99902c-0.666992 -2 -1 -4 -1 -6c0.666992 -5.33301 1.5 -10.666 2.5 -15.999s1.83301 -9.33301 2.5 -12l1 -4zM214.004 127.996c7.33301 3.33301 19.833 7.66797 37.5 13.001s31.167 8.66602 40.5 9.99902c-10 9.33301 -25.667 31.333 -47 66
c-16 -52 -26.333 -81.667 -31 -89zM366.004 131.998c4 4 3.33203 6.66797 -2.00098 8.00098c-3.33301 1.33301 -7.5 1.83301 -12.5 1.5s-9.5 -0.5 -13.5 -0.5l-7 -1c5.33301 -5.33301 11.333 -9.33301 18 -12s12.334 -1.33398 17.001 3.99902z" />
    <glyph glyph-name="alert" unicode="&#xf103;" 
d="M501 89c0 -38.667 -0.334961 -60.667 -1.00195 -66c-2 -19.333 -9.66699 -31 -23 -35h-2h-138c0.666992 -5.33301 0.666992 -11 0 -17c-1.33301 -10.667 -5.66602 -19 -12.999 -25c-7.33301 -5.33301 -17 -8.33301 -29 -9c-10 -0.666992 -22.833 -1 -38.5 -1
s-28.5 0.333008 -38.5 1c-12 0.666992 -21.333 3.66699 -28 9c-8 6 -12.667 14.333 -14 25c-0.666992 6 -0.666992 11.667 0 17h-138h-2c-2 0.666992 -4.16699 1.66699 -6.5 3s-5.5 5 -9.5 11s-6.33301 13 -7 21c-0.666992 5.33301 -1 27.333 -1 66v1l1 1
c1.33301 14 10.333 24.333 27 31c10 4 18.333 8 25 12s12.667 9.5 18 16.5s10 15.833 14 26.5c4.66699 13.333 10.334 36 17.001 68c6 30 11 50 15 60c12 30 29.667 51.333 53 64c5.33301 2 10 4 14 6c-2.66699 15.333 -0.666992 29.333 6 42c10.667 20.667 28.667 31 54 31
h1c25.333 0 43.333 -10.333 54 -31c6.66699 -12.667 8.66699 -26.667 6 -42l14 -6c23.333 -12.667 41 -34 53 -64c4 -9.33301 9 -29.333 15 -60c6.66699 -32 12.334 -54.667 17.001 -68c6 -15.333 13.167 -26.833 21.5 -34.5s20.166 -14.5 35.499 -20.5
c16.667 -6 26 -16.333 28 -31v-1v-1zM226.998 404c-3.33301 -6 -4.66895 -13.333 -4.00195 -22c5.33301 0.666992 10.666 1 15.999 1h2c12 0.666992 22.333 0.666992 31 0h4c5.33301 0 10 -0.333008 14 -1c0.666992 8 -0.666016 15.333 -3.99902 22
c-5.33301 10.667 -15.166 16 -29.499 16s-24.166 -5.33301 -29.499 -16zM308.995 -25c0.666992 4 0.666016 8.33301 -0.000976562 13h-105c-0.666992 -4.66699 -1 -9 -1 -13c0.666992 -6 6.33398 -9.33301 17.001 -10c24 -2 48.333 -2 73 0c10.667 0.666992 16 4 16 10z
M471.994 26c0.666992 6 0.994141 26.334 0.994141 61.001c-1.33301 4 -4.66602 7 -9.99902 9c-12 4.66699 -22.167 9.66699 -30.5 15s-16.166 12.666 -23.499 21.999s-13.666 21 -18.999 35c-4.66699 14 -10.667 38 -18 72c-5.33301 28 -9.66602 46 -12.999 54
c-10 24 -23.667 40.667 -41 50c-12.667 6.66699 -27 10.334 -43 11.001h-4c-7.33301 0.666992 -17 0.666992 -29 0h-2c-16.667 0 -31.334 -3.66699 -44.001 -11c-18 -9.33301 -32 -26 -42 -50c-3.33301 -8 -7.66602 -26 -12.999 -54c-6.66699 -34 -12.667 -58 -18 -72
c-7.33301 -20 -16.666 -35.333 -27.999 -46s-26.333 -19.334 -45 -26.001c-5.33301 -2 -8.66602 -5 -9.99902 -9c0 -32 0.333008 -52.333 1 -61c0 -4.66699 1 -8 3 -10h425c2 2 3 5.33301 3 10z" />
    <glyph glyph-name="alliance" unicode="&#xf104;" 
d="M0 379h512v-393h-512v393zM30 350v-147l70 46l108 -82h121l128 183h-427zM308 138h-62l41 -30zM157 167l-58 45l-67 -45h125zM484 19v119h-138l-53 -74l-98 74h-164v-119h453zM366 167h118l-1 169z" />
    <glyph glyph-name="answered" unicode="&#xf105;" 
d="M431 359c22.667 0 41.834 -7.83301 57.501 -23.5s23.5 -34.834 23.5 -57.501v-177c0 -22.667 -7.83301 -41.834 -23.5 -57.501s-34.834 -23.5 -57.501 -23.5h-158l-92 -86v86h-100c-22.667 0 -41.834 7.83301 -57.501 23.5s-23.5 34.834 -23.5 57.501v177
c0 22.667 7.83301 41.834 23.5 57.501s34.834 23.5 57.501 23.5h350zM236 97l144 164l-37 33l-118 -132l-56 50l-30 -33z" />
    <glyph glyph-name="any-data-anywhere" unicode="&#xf106;" 
d="M423 74l0.999023 2.00098h-3l-36 30h52c4 13.333 7 26.666 9 39.999c12.667 0 23.334 5 32.001 15c-0.666992 -16 -4 -34.5 -10 -55.5s-12.667 -38.5 -20 -52.5zM152.999 126.001c-5.33301 8.66699 -12.668 14.667 -22.001 18c-0.666992 8 -1 16.333 -1 25
c0 11.333 0.333008 22.333 1 33c5.33301 -2 11 -3 17 -3c4.66699 0 9.33398 1 14.001 3c-0.666992 -11.333 -1 -22.333 -1 -33c0 -13.333 0.666992 -27 2 -41zM327.997 357.001c11.333 3.33301 19.667 10.668 25 22.001c26.667 -14.667 51.667 -37.5 75 -68.5
s38 -61.5 44 -91.5c-7.33301 6.66699 -16 10 -26 10c-2.66699 0 -5.33398 -0.333008 -8.00098 -1c-1.33301 4.66699 -2.66602 9 -3.99902 13h-89c1.33301 -8.66699 2.33301 -16.334 3 -23.001c-8.66699 5.33301 -18 9 -28 11l2 97c7.33301 -17.333 13 -35.333 17 -54h81
c-9.33301 15.333 -23 31.333 -41 48s-35 29 -51 37zM411.998 55.0029l23.998 -19.999c-19.333 -28.667 -48.166 -53 -86.499 -73s-74.833 -30 -109.5 -30c-65.333 0 -121.333 23.167 -168 69.5s-70 102.333 -70 168s23.333 121.667 70 168s102.667 69.5 168 69.5
c12 0 24 -1 36 -3c-0.666992 -2.66699 -1 -5.33398 -1 -8.00098c0 -8 2.66699 -15.833 8 -23.5s11.666 -12.834 18.999 -15.501l-2 -61c-8 24.667 -17.5 44.167 -28.5 58.5s-21.5 21.5 -31.5 21.5c-11.333 0 -23.5 -9.33301 -36.5 -28s-23.167 -43.667 -30.5 -75
c-7.33301 6 -15.666 9 -24.999 9c-2 0 -3.66699 -0.333008 -5 -1c8.66699 35.333 20.667 64 36 86c-21.333 -6.66699 -43.666 -19.334 -66.999 -38.001s-40.666 -37.667 -51.999 -57h61c-8.66699 -7.33301 -13.334 -16.666 -14.001 -27.999
c-0.666992 -1.33301 -1 -2.33301 -1 -3h-60c-8.66699 -23.333 -13 -47.333 -13 -72c0 -21.333 3.33301 -42.333 10 -63h33v-1c0 -11.333 4.33301 -21 13 -29h-33c10.667 -22 28 -43.167 52 -63.5s47.667 -33.833 71 -40.5c-17.333 24.667 -30.333 57.667 -39 99
c11.333 6.66699 17.666 16.667 18.999 30v4l6 2v-1h87c6.66699 -7.33301 14.667 -13 24 -17l-5 -14h-100c10.667 -51.333 27.334 -86 50.001 -104c8 -11.333 19 -17 33 -17c11.333 0 21 4 29 12s12 17.667 12 29c0 6.66699 -1.66699 13.334 -5 20.001
c8 17.333 14.333 37.333 19 60h-15l2 8c3.33301 -0.666992 7 -1 11 -1c19.333 0 36.333 6.66699 51 20l31 -26h-48c-8.66699 -43.333 -22 -78 -40 -104c19.333 6 40 17.167 62 33.5s38.333 32.833 49 49.5zM299.996 272.004l-1 -31h-110
c-0.666992 12.667 -5.66699 23 -15 31h126zM284.996 -6.99609c-0.666992 -8 -3.99902 -14.668 -9.99902 -20.001s-13 -8 -21 -8c-8.66699 0 -16 3 -22 9s-9 13.333 -9 22c0 5.33301 1.33301 10.333 4 15s6.5 8.5 11.5 11.5s10.167 4.5 15.5 4.5c2.66699 0 5 -0.333008 7 -1
l23 73c-7.33301 2.66699 -14.333 7.66699 -21 15s-11.334 14.666 -14.001 21.999l-100 -28v-3c0 -8.66699 -3 -16 -9 -22s-13.333 -9 -22 -9s-16 3 -22 9s-9 13.333 -9 22s3 16 9 22s13.333 9 22 9c5.33301 0 10.833 -1.66699 16.5 -5s9.5 -7.66602 11.5 -12.999l100 28v7v3
c0 8.66699 1.66699 17.334 5 26.001l-79 40c-6 -8 -14 -12 -24 -12c-6 0 -11.333 1.33301 -16 4s-8.33398 6.33398 -11.001 11.001s-4 10 -4 16c0 8.66699 3 16 9 22s13.333 9 22 9s16 -3 22 -9s9 -13.333 9 -22c0 -3.33301 -0.666992 -6.33301 -2 -9l80 -41
c2.66699 4.66699 6.66699 9 12 13s11 7.16699 17 9.5s11.667 3.83301 17 4.5l4 148c-4 1.33301 -7.66699 3.66602 -11 6.99902s-6 7 -8 11s-3 8 -3 12c0 8.66699 3.16699 16 9.5 22s13.666 9 21.999 9s15.5 -3 21.5 -9s9 -13.333 9 -22c0 -8 -2.83301 -15 -8.5 -21
s-12.5 -9.33301 -20.5 -10l-4 -147c12 -1.33301 23.333 -6.66602 34 -15.999s17.334 -20 20.001 -32l47 13v4c0 8.66699 3 16 9 22s13.167 9 21.5 9s15.5 -3 21.5 -9s9 -13.167 9 -21.5s-3 -15.5 -9 -21.5s-13 -9 -21 -9c-12.667 0 -21.667 5 -27 15l-49 -14v-2
c0 -12.667 -3.66699 -24.334 -11 -35.001l103 -87c6 6 13.333 9 22 9c8 0 15.167 -3 21.5 -9s9.5 -13.333 9.5 -22s-3.16699 -16 -9.5 -22s-13.666 -9 -21.999 -9s-15.666 3 -21.999 9s-9.5 13.333 -9.5 22c0 4.66699 1.33301 9 4 13l-104 88
c-12 -12.667 -26.667 -19 -44 -19c-4.66699 0 -9.33398 0.666992 -14.001 2l-23 -75c9.33301 -6 14 -14.333 14 -25v-3z" />
    <glyph glyph-name="any-platforms" unicode="&#xf107;" 
d="M371 91h-268v29h268v-29zM103 173h1h214v-29h-215v29zM103 228h1h264v-30h-265v30zM103 287h1h213v-29h-214v29zM421 95v-57h-12v57h12zM442 133v-95h-12v95h12zM464 175v-137h-11v137h11zM488 144v-106h-12v106h12zM512 1c0 -8.66699 -0.833008 -13.833 -2.5 -15.5
s-7.5 -2.5 -17.5 -2.5h-84h-11.5c-2.33301 0 -4.33301 0.833008 -6 2.5s-2.5 3.5 -2.5 5.5v10v29h-349c-18 0 -28.833 1.83301 -32.5 5.5s-5.5 15.5 -5.5 35.5v237c0 19.333 2 30.833 6 34.5s14.667 5.5 32 5.5h390c14 0 23 -1.16699 27 -3.5s6 -8.83301 6 -19.5v-119h39
c4.66699 0 7.66699 -1 9 -3s2 -6.33301 2 -13v-189zM37.5 173.001c4.33301 0 8 1.5 11 4.5s4.5 6.66699 4.5 11s-1.5 8 -4.5 11s-6.66699 4.5 -11 4.5s-8 -1.5 -11 -4.5s-4.5 -6.66699 -4.5 -11s1.5 -8 4.5 -11s6.66699 -4.5 11 -4.5zM71 53.001l317 -0.000976562v137
c0 4.66699 0.166992 7.83398 0.5 9.50098s1.33301 3.16699 3 4.5s4.16699 2 7.5 2h38v119h-366v-272zM450 -7c5.33301 0 8 2.5 8 7.5s-2.66699 7.5 -8 7.5s-8 -2.5 -8 -7.5s2.66699 -7.5 8 -7.5zM501 17v176h-102v-176h102z" />
    <glyph glyph-name="apple" unicode="&#xf108;" 
d="M176 -59c-29.333 2.66699 -57.999 28.667 -85.999 78c-29.333 52 -44 102.667 -44 152c0 52.667 14.333 94 43 124c13.333 14 28.666 23.333 45.999 28c9.33301 2.66699 19 4 29 4h2c9.33301 0 18.333 -0.666992 27 -2c6.66699 -1.33301 17.334 -4 32.001 -8
c13.333 -4 23.666 -6.33301 30.999 -7c8.66699 -1.33301 24 1.66699 46 9c12 4 22 6.66699 30 8c7.33301 1.33301 14.666 2.33301 21.999 3c28 0.666992 52.333 -7.66602 73 -24.999c8.66699 -6.66699 16.334 -14.334 23.001 -23.001l2 -2
c-14 -12.667 -24.667 -23.667 -32 -33c-8.66699 -11.333 -14.667 -23.666 -18 -36.999c-2.66699 -8.66699 -4 -17.334 -4 -26.001v-3c0 -24 6.66699 -45.667 20 -65l4 -6c12.667 -16.667 27 -27.667 43 -33l2 -1c0 -0.666992 -1.66699 -5 -5 -13
c-7.33301 -20.667 -18.333 -41.667 -33 -63c-19.333 -30 -39 -48.333 -59 -55c-6 -2.66699 -12 -4 -18 -4c-9.33301 0 -22 2.66699 -38 8c-17.333 6 -31 9.66699 -41 11c-2.66699 0.666992 -5.66699 1 -9 1s-6.33301 -0.333008 -9 -1
c-10.667 -1.33301 -22.334 -4.33301 -35.001 -9c-7.33301 -3.33301 -14.666 -6 -21.999 -8c-8 -2 -15.333 -2.66699 -22 -2zM252.001 325c1.33301 27.333 8.66895 51.002 22.002 71.002c13.333 20.667 34.666 35.334 63.999 44.001c7.33301 2.66699 11.666 4 12.999 4l1 -3
c0.666992 -2.66699 1 -6.33398 1 -11.001s-0.333008 -9.33398 -1 -14.001c-2 -11.333 -5.33301 -22 -10 -32c-6 -12.667 -14.333 -24.334 -25 -35.001s-21 -18 -31 -22c-5.33301 -2 -13 -3.66699 -23 -5l-11 -1v2v2z" />
    <glyph glyph-name="arrow-down-style2" unicode="&#xf109;" 
d="M232 448l34.002 -0.000976562v-443l182 202c3.33301 3.33301 7.66602 5 12.999 5c2 0 4.16699 -0.333008 6.5 -1s4.16602 -1.83398 5.49902 -3.50098s2.5 -3.5 3.5 -5.5s1.5 -4.33301 1.5 -7c0 -4 -1.33301 -7.66699 -4 -11l-225 -247l-224 241
c-2.66699 3.33301 -4 7.33301 -4 12c0 2.66699 0.666992 5.33398 2 8.00098s3.33301 4.83398 6 6.50098s5.66699 2.5 9 2.5c4.66699 0 9 -2 13 -6l181 -196v443z" />
    <glyph glyph-name="arrow-down-style3" unicode="&#xf10a;" 
d="M0 321h512l-256 -258z" />
    <glyph glyph-name="arrow-down" unicode="&#xf10b;" 
d="M246 448h20v-474l71 72c2 2 4.66699 3 8 3c6.66699 0 10 -3.33301 10 -10c0 -2.66699 -1.33301 -5 -4 -7l-95 -96l-95 96c-2 2 -3 4.33301 -3 7s1 5 3 7s4.33301 3 7 3s5 -1 7 -3l71 -72v474z" />
    <glyph glyph-name="arrow-left-style2" unicode="&#xf10c;" 
d="M512 210v-34.002h-444l202 -182c4 -3.33301 6 -7.66602 6 -12.999c0 -4.66699 -1.66699 -8.66699 -5 -12s-7.33301 -5 -12 -5s-8.66699 1.33301 -12 4l-247 225l242 224c3.33301 2.66699 7 4 11 4c4.66699 0 8.66699 -1.66699 12 -5s5 -7.33301 5 -12
c0 -5.33301 -1.66699 -9.66602 -5 -12.999l-197 -181h444z" />
    <glyph glyph-name="arrow-left-style3" unicode="&#xf10d;" 
d="M385 448v-512l-258 256z" />
    <glyph glyph-name="arrow-left-style4" unicode="&#xf10e;" 
d="M512 167h-398.002l176 -163c4.66699 -2.66699 7 -6.66699 7 -12c0 -2.66699 -0.666992 -5.16699 -2 -7.5s-3.16602 -4.33301 -5.49902 -6s-5.16602 -2.5 -8.49902 -2.5c-4 0 -7.66699 1.66699 -11 5l-216 201l221 202c2.66699 2 5.66699 3 9 3
c4.66699 0 8.5 -1.5 11.5 -4.5s4.5 -6.83301 4.5 -11.5c0 -4 -1.33301 -7.33301 -4 -10l-182 -164h398v-30zM-0.00195312 -39v441h30v-441h-30z" />
    <glyph glyph-name="arrow-left" unicode="&#xf10f;" 
d="M512 202v-20h-474l72 -71c2 -2 3 -4.66699 3 -8c0 -6.66699 -3.33301 -10 -10 -10c-2.66699 0 -5 1.33301 -7 4l-96 95l96 96c2 2 4.33301 3 7 3s5 -1 7 -3s3 -4.33301 3 -7s-1 -5 -3 -7l-72 -72h474z" />
    <glyph glyph-name="arrow-right-style2" unicode="&#xf110;" 
d="M0 175l0.000976562 34.0029h444l-202 182c-4 3.33301 -6 7.66602 -6 12.999c0 2 0.5 4.16699 1.5 6.5s2.16699 4.16602 3.5 5.49902s3.16602 2.5 5.49902 3.5s4.5 1.5 6.5 1.5c4.66699 0 8.66699 -1.33301 12 -4l247 -225l-242 -224c-3.33301 -2.66699 -7 -4 -11 -4
c-4.66699 0 -8.66699 1.66699 -12 5s-5 7.33301 -5 12c0 5.33301 1.66699 9.66602 5 12.999l197 181h-444z" />
    <glyph glyph-name="arrow-right-style3" unicode="&#xf111;" 
d="M127 -64v512l258 -256z" />
    <glyph glyph-name="arrow-right-style4" unicode="&#xf112;" 
d="M0 196h398l-176 163c-4.66699 2.66699 -7 6.66699 -7 12c0 4 1.5 7.5 4.5 10.5s6.83301 4.5 11.5 4.5c4 0 7.66699 -1.66699 11 -5l216 -200l-221 -202c-2.66699 -2 -5.66699 -3 -9 -3c-4.66699 0 -8.5 1.5 -11.5 4.5s-4.5 6.5 -4.5 10.5s1.33301 7.66699 4 11l182 163
h-398v31zM512 402v-441h-30v441h30z" />
    <glyph glyph-name="arrow-right" unicode="&#xf113;" 
d="M0 182v20h474l-72 72c-2 2 -3 4.66699 -3 8c0 6.66699 3.33301 10 10 10c2.66699 0 5 -1.33301 7 -4l96 -96l-96 -95c-2 -2 -4.33301 -3 -7 -3s-5 1 -7 3s-3 4.33301 -3 7s1 5 3 7l72 71h-474z" />
    <glyph glyph-name="arrow-up-style2" unicode="&#xf114;" 
d="M274 -63h-34v443l-183 -202c-3.33301 -3.33301 -7.33301 -5 -12 -5s-8.83398 1.66699 -12.501 5s-5.5 7.33301 -5.5 12c0 4 1.66699 7.66699 5 11l224 247l224 -241c3.33301 -3.33301 5 -7.33301 5 -12s-1.66699 -8.66699 -5 -12s-7.33301 -5 -12 -5
c-5.33301 0 -9.66602 2 -12.999 6l-181 196v-443z" />
    <glyph glyph-name="arrow-up-style3" unicode="&#xf115;" 
d="M512 63h-512l256 258z" />
    <glyph glyph-name="arrow-up" unicode="&#xf116;" 
d="M266 -64h-20v474l-71 -72c-2 -2 -4.66699 -3 -8 -3c-6.66699 0 -10 3.33301 -10 10c0 2.66699 1.33301 5 4 7l95 96l95 -96c2 -2 3 -4.33301 3 -7s-1 -5 -3 -7s-4.33301 -3 -7 -3s-5 1 -7 3l-71 72v-474z" />
    <glyph glyph-name="author-view-anywhere" unicode="&#xf117;" 
d="M336 152v-20h-25v20h25zM300 152v-20h-25v20h25zM372 152v-20h-25v20h25zM449 385c42 -42 63.0029 -92.8311 63.0029 -152.498s-21 -110.5 -63 -152.5c-39.333 -39.333 -86.833 -60.333 -142.5 -63s-104.5 13.666 -146.5 48.999v-1l-122 -122l-2 -1
c-4.66699 -4 -10 -5.83301 -16 -5.5s-10.833 2.66602 -14.5 6.99902s-5.33398 9.5 -5.00098 15.5s2.5 11 6.5 15l122 122h1c-34.667 42 -50.834 90.833 -48.501 146.5s23.166 103.167 62.499 142.5c42 42 92.833 63 152.5 63s110.5 -21 152.5 -63zM425.003 105.002
c35.333 35.333 53.001 78 53.001 128s-17.833 92.667 -53.5 128s-78.5 52.833 -128.5 52.5s-92.667 -18 -128 -53s-52.833 -77.5 -52.5 -127.5s18.166 -92.667 53.499 -128s78 -53 128 -53s92.667 17.667 128 53zM404.004 152.002v-20h-22v20h22zM343.004 313.002l10 -10
l-122 -122l-10 11zM265.004 152.002v-20h-26v20h26zM204.004 132.002v20h25v-20h-25zM349.004 346.002l-15 -16l-11 11l26 26l34 -33l-26 -27l-10 10l15 16zM227.004 177.002l-15 -15l-34 34l15 15zM330.004 326.002l-122 -122l-11 11l122 122zM174.004 192.002l34 -34
l-40 -6zM168.004 132.002v20h25v-20h-25z" />
    <glyph glyph-name="auto-updates" unicode="&#xf118;" 
d="M240 72h84l-94 -135l-95 135h85v135h20v-135zM476 264c-12 -12 -26.665 -20.667 -43.998 -26v-113h-109v20h89v88h-12c-24.667 0 -47.334 8.5 -68.001 25.5s-33.334 37.833 -38.001 62.5h-247v-176h89v-20h-109v216h266c0 29.333 10.5 54.5 31.5 75.5
s46.333 31.5 76 31.5s55 -10.5 76 -31.5s31.5 -46.5 31.5 -76.5c0 -12 -3.16699 -25.5 -9.5 -40.5s-13.833 -26.833 -22.5 -35.5zM463.502 277c7 7.33301 13.167 17.168 18.5 29.501s8 23.5 8 33.5c0 12.667 -2.33301 24.5 -7 35.5s-11 20.5 -19 28.5s-17.667 14.333 -29 19
s-23 7 -35 7c-24.667 0 -45.667 -8.83301 -63 -26.5s-26 -38.834 -26 -63.501s8.66699 -45.667 26 -63s38.333 -26 63 -26c10.667 0 22.167 2.5 34.5 7.5s22 11.167 29 18.5zM386.002 314.002l49 79l15 -9l-60 -96l-37 33l11 13z" />
    <glyph glyph-name="best-practices-built-in" unicode="&#xf119;" 
d="M510 448c1.33301 0 2 -0.666992 2 -2v-508c0 -1.33301 -0.666992 -2 -2 -2h-345c-1.33301 0 -2 0.666992 -2 2v508c0 1.33301 0.666992 2 2 2h345zM487 -36v456h-298v-456h298zM146 448c0.666992 0 1 -0.333008 1 -1v-158c0 -0.666992 -0.333008 -1 -1 -1h-145
c-0.666992 0 -1 0.333008 -1 1v158c-0 0.666992 0.333008 1 1 1h145zM118 321v95h-89v-95h89zM243 202h36v-217h-36v217zM322 318h36v-333h-36v333zM402 135h36v-150h-36v150zM146 272c0.666992 0 1 -0.333008 1 -1v-158c0 -0.666992 -0.333008 -1 -1 -1h-145
c-0.666992 0 -1 0.333008 -1 1v158c-0 0.666992 0.333008 1 1 1h145zM118 144v95h-89v-95h89zM146 96c0.666992 0 1 -0.333008 1 -1v-158c0 -0.666992 -0.333008 -1 -1 -1h-145c-0.666992 0 -1 0.333008 -1 1v158c-0 0.666992 0.333008 1 1 1h145zM118 -32v95h-89v-95h89z
" />
    <glyph glyph-name="best-practices" unicode="&#xf11a;" 
d="M256.5 448c19 0 35.168 -6.66602 48.501 -19.999s20 -30 20 -50c0 -25.333 -10 -45 -30 -59c-4 -2.66699 -6 -10.334 -6 -23.001v-39v-3c0 -1.33301 -0.666992 -3.5 -2 -6.5s-3 -5.66699 -5 -8s-5.33301 -4.5 -10 -6.5s-10 -3 -16 -3
c-9.33301 0 -16.666 2.33301 -21.999 7s-8 9 -8 13l-1 7v39c0 6 -0.333008 10.333 -1 13s-1.33398 4.5 -2.00098 5.5s-2.33398 2.5 -5.00098 4.5c-19.333 14 -29 33.667 -29 59c0 20 6.66699 36.667 20 50s29.5 20 48.5 20zM278.001 254.001v7.99805h-42v-8
c0 -1.33301 0.166992 -2.66602 0.5 -3.99902s2.16602 -3.16602 5.49902 -5.49902s8 -3.5 14 -3.5s10.833 1 14.5 3s5.83398 4.33301 6.50098 7zM278.001 273.999v13h-42v-13h42zM284.001 324.999c19.333 12 29 29.6689 29 53.002c0 16.667 -5.33301 30.5 -16 41.5
s-24.167 16.5 -40.5 16.5s-29.833 -5.5 -40.5 -16.5s-16 -24.833 -16 -41.5c0 -25.333 9.33301 -43 28 -53c5.33301 -2.66699 8 -7.33398 8 -14.001v-14h14v64h-7c-2.66699 0 -4 1 -4 3l4 3h7v3c-1.33301 6.66699 1 10 7 10c2 0 3.66699 -0.833008 5 -2.5s2 -3.16699 2 -4.5
v-3v-3h7c2 0 3 -1 3 -3l-3 -2h-7v-66h14v15c0 2.66699 0.5 5.16699 1.5 7.5s2.16699 4.16602 3.5 5.49902zM348.001 226.001c20.667 0 38.8359 -1.83301 54.5029 -5.5s26.167 -7.16699 31.5 -10.5l7 -6v-261c-24.667 12.667 -55.667 19 -93 19
c-34.667 0 -65.334 -6 -92.001 -18h-2h-2c-26 12 -56.333 18 -91 18c-16.667 0 -32.834 -1.66699 -48.501 -5s-27.167 -6.33301 -34.5 -9l-11 -5v261c0.666992 0 2.16699 0.833008 4.5 2.5s5.66602 3.5 9.99902 5.5s9.83301 4 16.5 6s15.5 3.83301 26.5 5.5
s23.167 2.5 36.5 2.5c42 0 72.333 -6.66699 91 -20c0.666992 -0.666992 1.5 -1 2.5 -1s1.83301 0.333008 2.5 1c18 13.333 48.333 20 91 20zM242.003 -29.999l0.000976562 216.002c-12.667 12 -38.334 18 -77.001 18c-17.333 0 -32.5 -1.33301 -45.5 -4
s-21.833 -5.33398 -26.5 -8.00098l-7 -4v-218c22 10.667 48.333 16 79 16c13.333 0 26.333 -1.33301 39 -4s22 -5.33398 28 -8.00098zM424.004 -29.9971l-0.000976562 218.001c-14 10.667 -40.333 16 -79 16c-17.333 0 -32.333 -1.5 -45 -4.5s-21 -5.83301 -25 -8.5l-7 -5
v-216c20.667 10.667 46.334 16 77.001 16c14 0 27.5 -1.33301 40.5 -4s22.5 -5.33398 28.5 -8.00098z" />
    <glyph glyph-name="blog-post" unicode="&#xf11b;" 
d="M424 253l30 27v-344h-416v511c0 0.666992 0.333008 1 1 1h415v-49l-30 -26v49h-355c-0.666992 0 -1 -0.333008 -1 -1v-455h356v287zM133 318v16h226v-32h-226v16zM133 182v17h137v-33h-137v16zM285 210l35 -36l-42 -5zM508 359l-28 -28l-14 14l11 11l-8 8l-11 -11l-14 14
l28 28zM324 221l-14 14l130 128l14 -14zM461 341l14 -14l-130 -128l-14 14zM341 194l-16 -15l-36 36l16 16z" />
    <glyph glyph-name="bookmark" unicode="&#xf11c;" 
d="M387 442c3.33301 0 4.99609 -1.33301 4.99609 -4v-496c0 -2.66699 -1.16699 -4.33398 -3.5 -5.00098s-4.16602 -0.333984 -5.49902 0.999023l-123 123c-1.33301 1.33301 -2.66602 2 -3.99902 2s-2.66602 -0.666992 -3.99902 -2l-123 -123
c-1.33301 -1.33301 -3.16602 -1.66602 -5.49902 -0.999023s-3.5 2.33398 -3.5 5.00098v496c0 2.66699 1.66699 4 5 4h262zM366.996 -1v415c-0.666992 2 -2 3 -4 3h-214c-2 0 -3.33301 -1 -4 -3v-419c0 -1.33301 0.833008 -2.33301 2.5 -3s3.16699 -0.333984 4.5 0.999023
l103 104c0.666992 0.666992 1.5 1 2.5 1s1.83301 -0.333008 2.5 -1l100 -100c1.33301 -1.33301 2.83301 -1.66602 4.5 -0.999023s2.5 1.66699 2.5 3z" />
    <glyph glyph-name="calculations-library" unicode="&#xf11d;" 
d="M1 448h511v-512h-512v511c-0 0.666992 0.333008 1 1 1zM25 -39h462v462h-461zM142 314h26v-32h-51v32h25zM142 113h26v-32h-51v32h25zM142 216h26v-32h-51v32h25zM219 314h26v-32h-51v32h25zM219 113h26v-32h-51v32h25zM219 216h26v-32h-51v32h25zM296 216h26v-32h-51v32
h25zM296 113h26v-32h-51v32h25zM296 314h26v-32h-51v32h25zM373 314h26v-32h-51v32h25zM373 113h26v-32h-51v32h25zM373 216h26v-32h-51v32h25z" />
    <glyph glyph-name="calendar" unicode="&#xf11e;" 
d="M455 391c16 0 29.5 -5.5 40.5 -16.5s16.5 -24.5 16.5 -40.5v-341c0 -16 -5.5 -29.5 -16.5 -40.5s-24.5 -16.5 -40.5 -16.5h-398c-16 0 -29.5 5.5 -40.5 16.5s-16.5 24.5 -16.5 40.5v341c0 16 5.5 29.5 16.5 40.5s24.5 16.5 40.5 16.5h25v-57h92v57h164v-57h92v57h25z
M455 -7v288h-398v-288h398zM404 351h-40v97h40v-97zM148 351h-40v97h40v-97zM431 145h-58v53h58v-53zM358 145h-58v53h58v-53zM284 145h-58v53h58v-53zM211 145h-58v53h58v-53zM138 145h-59v53h59v-53zM431 78h-58v53h58v-53zM358 78h-58v53h58v-53zM284 78h-58v53h58v-53z
M211 78v53h-58v-53h58zM138 78h-59v53h59v-53zM431 12h-58v53h58v-53zM358 12h-58v53h58v-53zM284 12h-58v53h58v-53zM211 12h-58v53h58v-53zM138 12h-59v53h59v-53zM431 211h-58v53h58v-53zM358 211h-58v53h58v-53zM284 211h-58v53h58v-53zM211 211h-58v53h58v-53zM138 211
h-59v53h59v-53zM211 78h-58v53h58v-53z" />
    <glyph glyph-name="certification" unicode="&#xf11f;" 
d="M134 162v15h244v-15h-244zM134 67v15h244v-15h-244zM335.5 326c-7 0 -13.167 2.66699 -18.5 8s-8 11.5 -8 18.5s2.66699 13.167 8 18.5s11.5 8 18.5 8s13.167 -2.66699 18.5 -8s8 -11.5 8 -18.5s-2.66699 -13.167 -8 -18.5s-11.5 -8 -18.5 -8zM335.5 370
c-5 0 -9.16699 -1.66699 -12.5 -5s-5 -7.5 -5 -12.5s1.66699 -9.16699 5 -12.5s7.5 -5 12.5 -5s9.16699 1.66699 12.5 5s5 7.5 5 12.5s-1.66699 9.16699 -5 12.5s-7.5 5 -12.5 5zM434 448c2 0 2.66699 -1 2 -3v-507c0.666992 -1.33301 0 -2 -2 -2h-356
c-2 0 -2.66699 0.666992 -2 2v507c-0.666992 2 0 3 2 3h356zM411 -39v462h-310v-462h310zM134 114v15h244v-15h-244zM287 351l0.000976562 1.99902c-0.666992 0 -1.16699 0.333008 -1.5 1s-0.833008 1.83398 -1.5 3.50098s-1.16699 3.16699 -1.5 4.5
s-0.333008 3.16602 0 5.49902s1.16602 4.5 2.49902 6.5c4.66699 8 10.334 10.333 17.001 7c-2.66699 8 -0.666992 15 6 21c8 6.66699 16 6.33398 24 -0.999023h4c0.666992 0 1.16699 0.166992 1.5 0.5s1.33301 0.833008 3 1.5s3.16699 1.16699 4.5 1.5
s3.16602 0.333008 5.49902 0s4.5 -0.833008 6.5 -1.5c7.33301 -4.66699 9.66602 -10.667 6.99902 -18c8 3.33301 14.667 1.66602 20 -5.00098c2.66699 -4 3.83398 -8.33301 3.50098 -13s-1.83301 -8.66699 -4.5 -12v-3c0.666992 0 1.16699 -0.333008 1.5 -1l1.5 -3
c0.666992 -1.33301 1.16699 -2.83301 1.5 -4.5s0.333008 -3.66699 0 -6s-0.833008 -4.5 -1.5 -6.5c-5.33301 -8 -11.333 -10.333 -18 -7c2 -6 1 -11.667 -3 -17l24 -105l-1 -1l-24 10h-1l-19 -15h-2l-6 92l-6 -92h-2l-19 15h-1l-24 -10l-1 1l24 107
c-1.33301 3.33301 -1.66602 7 -0.999023 11c-8 -3.33301 -14.667 -1.66602 -20 5.00098c-2.66699 4 -3.83398 8.5 -3.50098 13.5s1.83301 9.16699 4.5 12.5zM323.001 213.999l5.99902 88c-5.33301 -3.33301 -10.666 -3.33301 -15.999 0v1l-20 -86l17 7zM379 215.999l-20 86
c-5.33301 -2.66699 -11 -2.66699 -17 0l6 -88l14 9zM295 368.999l3 -14.998v-2c-2.66699 -2.66699 -4.16699 -6 -4.5 -10s0.5 -7.33301 2.5 -10c2 -2 5 -3.33301 9 -4s7 -0.333984 9 0.999023c-2.66699 -6.66699 -1.33398 -11.667 3.99902 -15l16 3h3
c6.66699 -6 13 -6.66699 19 -2c4.66699 4 5.66699 9.66699 3 17c7.33301 -2.66699 12.666 -1 15.999 5c1.33301 2.66699 1.83301 5.16699 1.5 7.5s-1.16602 4.5 -2.49902 6.5l-1 2v1c2 2.66699 3.16699 6 3.5 10s-0.5 7.33301 -2.5 10
c-4.66699 5.33301 -10.667 6.66602 -18 3.99902c2.66699 6 1.33398 10.667 -3.99902 14c-2.66699 1.33301 -5.16699 1.83301 -7.5 1.5s-4.5 -0.833008 -6.5 -1.5l-2 -2h-3c-6 5.33301 -12.333 5.66602 -19 0.999023c-5.33301 -3.33301 -6.33301 -8.66602 -3 -15.999
c-6.66699 2.66699 -12 0.666992 -16 -6zM264 255.001h-65h-65v15h130v-15zM264 207.001h-130v15h130v-15zM264 300.001h-130v14h130v-14zM134 347.001v15h130v-15h-130zM264 37.001h57h57v-8v-7h-57h-57v7v8z" />
    <glyph glyph-name="change-management" unicode="&#xf120;" 
d="M36 153v22h23v-22h-23zM94 153h-23v22h23v-22zM140 -61v24h23v-24h-23zM2 104h22v-22h-22v22zM128 -61h-23v24h23v-24zM94 -61h-23v24h23v-24zM59 -37v-24h-23v24h23zM24 -25h-22v22h22v-22zM24 -61h-22v24h22v-24zM232 -37v-24h-23v24h23zM175 -37h22v-24h-22v24z
M209 33h23v-22h-23v22zM2 11v22h22v-22h-22zM2 46v23h22v-23h-22zM2 118v21h22v-21h-22zM24 153h-22v23h22v-23zM232 -3v-22h-23v22h23zM510 46h-405v399h405v-399zM487 422h-358v-353h358v353zM286 208l-12 12l160 160l-139 1c-6 0 -9 2.66699 -9 8c0 6 2.66699 9 8 9h170
v-168c0 -5.33301 -3 -8 -9 -8c-5.33301 0 -8 3 -8 9l-1 136z" />
    <glyph glyph-name="chevron-down-style2" unicode="&#xf121;" 
d="M118 220c2 2.66699 4.66699 4 8 4c2 0 4 -0.666992 6 -2l123 -91l124 91c1.33301 1.33301 3.33301 2 6 2c6.66699 0 10 -3.33301 10 -10c0 -3.33301 -1.66699 -6 -5 -8l-135 -100l-135 100c-2.66699 1.33301 -4 4 -4 8c0 2 0.666992 4 2 6zM511 192
c0 -70.667 -25 -131 -75 -181s-110.333 -75 -181 -75s-131 25 -181 75s-75 110.333 -75 181s25 131 75 181s110.333 75 181 75s131 -25 181 -75s75 -110.333 75 -181zM468 102c12.667 28.667 18.999 58.6689 18.999 90.002c0 64 -22.667 118.5 -68 163.5
s-100 67.5 -164 67.5c-27.333 0 -55.5 -6.33301 -84.5 -19s-55 -29.834 -78 -51.501s-39.833 -45.167 -50.5 -70.5c-12 -28.667 -18 -58.667 -18 -90c0 -64 22.5 -118.5 67.5 -163.5s99.5 -67.5 163.5 -67.5c42.667 0 84.834 13.667 126.501 41s70.5 60.666 86.5 99.999z
" />
    <glyph glyph-name="chevron-down" unicode="&#xf122;" 
d="M5 271c-3.33301 2.66699 -5.00098 5.99902 -5.00098 9.99902c0 2.66699 0.666992 5.33398 2 8.00098c2.66699 3.33301 6.33398 5 11.001 5c2.66699 0 5 -1 7 -3l236 -170l236 170c2 2 4.33301 3 7 3c4 0 7.16699 -1.33301 9.5 -4s3.5 -5.66699 3.5 -9
c0 -4 -1.66699 -7.33301 -5 -10l-251 -181z" />
    <glyph glyph-name="chevron-left-style2" unicode="&#xf123;" 
d="M283 315l-91 -123l91 -123c1.33301 -2 2 -4 2 -6c0 -6.66699 -3.33301 -10 -10 -10c-3.33301 0 -6 1.33301 -8 4l-100 135l100 135c2 2.66699 4.66699 4 8 4c6.66699 0 10 -3.33301 10 -10c0 -2 -0.666992 -4 -2 -6zM509 192c0 -70.667 -25 -131 -75 -181
s-110.333 -75 -181 -75s-131 25 -181 75s-75 110.333 -75 181s25 131 75 181s110.333 75 181 75c46.667 0 89.667 -11.5 129 -34.5s70.333 -54 93 -93s34 -81.833 34 -128.5zM466 102c12.667 28.667 18.999 58.6689 18.999 90.002c0 64 -22.667 118.5 -68 163.5
s-100 67.5 -164 67.5c-27.333 0 -55.5 -6.33301 -84.5 -19s-55 -29.834 -78 -51.501s-39.833 -45.167 -50.5 -70.5c-12 -28.667 -18 -58.667 -18 -90c0 -64 22.5 -118.5 67.5 -163.5s99.5 -67.5 163.5 -67.5c42.667 0 84.834 13.667 126.501 41s70.5 60.666 86.5 99.999z
" />
    <glyph glyph-name="chevron-left" unicode="&#xf124;" 
d="M335 443c2.66699 3.33301 5.99902 5.00098 9.99902 5.00098c2.66699 0 5.33398 -0.666992 8.00098 -2c3.33301 -2.66699 5 -6.33398 5 -11.001c0 -2.66699 -1 -5 -3 -7l-170 -236l170 -236c2 -2 3 -4.33301 3 -7c0 -4 -1.33301 -7.16699 -4 -9.5s-5.66699 -3.5 -9 -3.5
c-4 0 -7.33301 1.66699 -10 5l-181 251z" />
    <glyph glyph-name="chevron-right-style2" unicode="&#xf125;" 
d="M228 55c-2.66699 2 -4 4.66699 -4 8c0 2 0.666992 4 2 6l91 123l-91 123c-1.33301 2 -2 4 -2 6c0 6.66699 3.33301 10 10 10c3.33301 0 6 -1.33301 8 -4l100 -135l-100 -135c-1.33301 -2.66699 -4 -4 -8 -4c-2 0 -4 0.666992 -6 2zM256 448c70.667 0 131 -25 181 -75
s75 -110.333 75 -181s-25 -131 -75 -181s-110.333 -75 -181 -75s-131 25 -181 75s-75 110.333 -75 181s25 131 75 181s110.333 75 181 75zM346 405c-28.667 12 -58.667 18 -90 18c-64 0 -118.5 -22.5 -163.5 -67.5s-67.5 -99.5 -67.5 -163.5
c0 -42.667 13.667 -84.667 41 -126s60.666 -70.333 99.999 -87c28.667 -12 58.667 -18 90 -18c64 0 118.5 22.5 163.5 67.5s67.5 99.5 67.5 163.5c0 42.667 -13.667 84.667 -41 126s-60.666 70.333 -99.999 87z" />
    <glyph glyph-name="chevron-right" unicode="&#xf126;" 
d="M177 -59c-2.66699 -3.33301 -5.99902 -5.00098 -9.99902 -5.00098c-2.66699 0 -5.33398 0.666992 -8.00098 2c-3.33301 2.66699 -5 6.33398 -5 11.001c0 2.66699 1 5 3 7l170 236l-170 236c-2 2 -3 4.33301 -3 7c0 4 1.33301 7.16699 4 9.5s5.66699 3.5 9 3.5
c4 0 7.33301 -1.66699 10 -5l181 -251z" />
    <glyph glyph-name="chevron-up-style2" unicode="&#xf127;" 
d="M395 164c-2 -3.33301 -4.66699 -5 -8 -5c-2.66699 0 -4.66699 0.666992 -6 2l-123 91l-124 -91c-1.33301 -1.33301 -3.33301 -2 -6 -2c-6.66699 0 -10 3.33301 -10 10c0 3.33301 1.33301 6.33301 4 9l136 99l135 -99c2.66699 -2 4 -5 4 -9c0 -2 -0.666992 -3.66699 -2 -5
zM2 191c0 70.667 24.833 131 74.5 181s110 75 181 75s131.5 -25 181.5 -75s75 -110.333 75 -181s-25 -131 -75 -181s-110.5 -75 -181.5 -75s-131.333 25 -181 75s-74.5 110.333 -74.5 181zM44 281c-12 -28.667 -18 -58.667 -18 -90c0 -64 22.667 -118.5 68 -163.5
s100 -67.5 164 -67.5c42 0 83.833 13.667 125.5 41s70.834 60.666 87.501 99.999c12 28.667 18 58.667 18 90c0 64 -22.667 118.5 -68 163.5s-99.666 67.5 -162.999 67.5c-42.667 0 -84.834 -13.667 -126.501 -41s-70.834 -60.666 -87.501 -99.999z" />
    <glyph glyph-name="chevron-up" unicode="&#xf128;" 
d="M507 113c3.33301 -2.66699 5.00098 -5.99902 5.00098 -9.99902c0 -2.66699 -0.666992 -5.33398 -2 -8.00098c-2.66699 -3.33301 -6.33398 -5 -11.001 -5c-2.66699 0 -5 1 -7 3l-236 170l-236 -170c-2 -2 -4.33301 -3 -7 -3c-4 0 -7.16699 1.33301 -9.5 4
s-3.5 5.66699 -3.5 9c0 4 1.66699 7.33301 5 10l251 181z" />
    <glyph glyph-name="classroom" unicode="&#xf129;" 
d="M29 316v-55l169 -48l306 65v-31l-305 -67l-198 59v100l306 59l205 -48v-16l-310 -61zM155 87l43 -12l306 76v-29l-305 -80l-44 13v32zM1 212l197 -56l306 66v-26l-305 -70l-170 48v-51l47 -14v-30l-75 23v110zM87 -7l2 132l55 -13v-132l-32 33z" />
    <glyph glyph-name="clock" unicode="&#xf12a;" 
d="M318 90l-90 90c-3.33301 3.33301 -5 7.33301 -5 12v129h30v-124l86 -86zM437 373c20 -20.667 37 -48.334 51 -83.001s21 -66.334 21 -95.001c0 -70.667 -25 -131 -75 -181s-110.333 -75 -181 -75c-28.667 0 -60.334 7 -95.001 21s-62.334 31 -83.001 51
c-20 20.667 -37 48.334 -51 83.001s-21 66.334 -21 95.001c0 70.667 25 131 75 181s110.333 75 181 75c28.667 0 60.334 -7 95.001 -21s62.334 -31 83.001 -51zM417 31c18.667 18.667 34.667 43.834 48 75.501s20 60.834 20 87.501c0 62.667 -22.167 116.167 -66.5 160.5
s-97.833 66.5 -160.5 66.5c-26.667 0 -55.834 -6.66699 -87.501 -20s-56.834 -29.333 -75.501 -48s-34.667 -43.834 -48 -75.501s-20 -60.834 -20 -87.501c0 -62.667 22.167 -116.167 66.5 -160.5s97.833 -66.5 160.5 -66.5c26.667 0 55.834 6.66699 87.501 20
s56.834 29.333 75.501 48z" />
    <glyph glyph-name="close-window-style2" unicode="&#xf12b;" 
d="M512 430l-238 -238l238 -238l-18 -18l-238 238l-238 -238l-18 18l238 238l-238 238l18 18l238 -238l238 238z" />
    <glyph glyph-name="close-window" unicode="&#xf12c;" 
d="M256 448c70.667 0 131 -25 181 -75s75 -110.333 75 -181s-25 -131 -75 -181s-110.333 -75 -181 -75s-131 25 -181 75s-75 110.333 -75 181s25 131 75 181s110.333 75 181 75zM420 28c21.333 21.333 37.667 46 49 74c12 28.667 18 58.667 18 90
c0 63.333 -22.5 117.5 -67.5 162.5s-99.333 67.5 -163 67.5s-118 -22.5 -163 -67.5s-67.5 -99.333 -67.5 -163s22.5 -118 67.5 -163s99.5 -67.5 163.5 -67.5c26 0 55 6.66699 87 20s57.333 29 76 47zM381.001 300l-107 -108l107 -108l-17 -17l-108 107l-108 -107l-17 17
l107 108l-107 108l17 17l108 -107l108 107z" />
    <glyph glyph-name="collaborate" unicode="&#xf12d;" 
d="M385 -62l-0.000976562 -1.99707h-248v1c-0.666992 8.66699 5.16602 17.167 17.499 25.5s26.5 15.833 42.5 22.5s25.667 11.667 29 15c1.33301 0.666992 2.33301 1.66699 3 3c0 1.33301 0.333008 3 1 5c0 2 -0.333008 4.33301 -1 7v5l-6 6c-10 12 -16.667 28.667 -20 50
c-2 14 -2.33301 26.667 -1 38c0.666992 7.33301 2.33398 14.666 5.00098 21.999l4 8c5.33301 9.33301 13 17 23 23c2 1.33301 4.33301 2.33301 7 3c6 2.66699 12.667 4 20 4c2.66699 0 5.33398 -0.333008 8.00098 -1c15.333 -2.66699 28 -10.667 38 -24
c6.66699 -10.667 10.667 -22.334 12 -35.001c0.666992 -2.66699 1 -5.33398 1 -8.00098v-2v-1c0 -10.667 -1 -21.334 -3 -32.001c-3.33301 -17.333 -9 -31.333 -17 -42c-1.33301 -2.66699 -3.33301 -5 -6 -7l-1 -1v-7c-0.666992 -2 -1 -4.33301 -1 -7
c0 -3.33301 1.33301 -5.66602 4 -6.99902c0.666992 -0.666992 3.33398 -2 8.00098 -4c27.333 -10 47.666 -20.167 60.999 -30.5s20 -19.5 20 -27.5zM162.999 -14.9971l-0.998047 0.000976562c-8.66699 -2 -18.334 -7.16699 -29.001 -15.5s-16.334 -19.166 -17.001 -32.499
v-1h-112v1c0 1.33301 0.333008 2.66602 1 3.99902c0.666992 4.66699 2.66699 9 6 13c4 5.33301 9 9.66602 15 12.999c7.33301 4 23.666 11.333 48.999 22l8 4c2 1.33301 3 3 3 5v7v6l-1 2c-2 1.33301 -3.66699 3 -5 5c-6.66699 9.33301 -11.667 21.333 -15 36
c-1.33301 8 -2.33301 16 -3 24v7.5v6.5c0.666992 8.66699 3 17 7 25s9.66699 14.667 17 20c8.66699 6.66699 18.334 10 29.001 10h2c4 0 7.66699 -0.666992 11 -2c14 -4 24.667 -13.333 32 -28c4 -8 6.33301 -16.667 7 -26v-5v-7c-0.666992 -28.667 -7 -49.667 -19 -63
l-5 -5l-1 -1v-6c0 -4.66699 0.333008 -7.33398 1 -8.00098c0.666992 -1.33301 1.66699 -2.66602 3 -3.99902l5 -2zM516.001 -62.9961l-0.00195312 -1h-110v1c0 8.66699 -4.16699 18 -12.5 28s-19.833 16.333 -34.5 19l-2 1l1 1l9 3l7 3c2 1.33301 3.33301 3 4 5v8v5l-1 1
c-1.33301 1.33301 -2.66602 3 -3.99902 5c-5.33301 6 -9.66602 13.667 -12.999 23c-4 11.333 -6.33301 24.333 -7 39v8v6c0.666992 8.66699 3 17 7 25c6.66699 13.333 16 22.333 28 27c6 2 11.667 3 17 3c4 0 8 -0.333008 12 -1c11.333 -3.33301 20.666 -10 27.999 -20
c2.66699 -2.66699 4.66699 -5.66699 6 -9c4 -8 6.33301 -16.667 7 -26v-5.5v-6.5c-0.666992 -24.667 -5.66699 -44 -15 -58c-2 -3.33301 -4.33301 -6 -7 -8l-2 -2v-5v-6v-1v-2c0.666992 -1.33301 1.33398 -2.33301 2.00098 -3l2 -2l6 -2c22 -9.33301 37.333 -16.333 46 -21
c2.66699 -0.666992 5 -2 7 -4c12.667 -8 19 -17.333 19 -28zM469.999 448.004c12.667 0 23.5 -4.50098 32.5 -13.501s13.5 -19.833 13.5 -32.5v-103c0 -12.667 -4.5 -23.5 -13.5 -32.5s-19.833 -13.5 -32.5 -13.5h-51v-61l-61 61h-73l-22 -64l-27 64h-70l-70 -64v64h-54
c-8 0 -15 2.16699 -21 6.5s-10.333 9.83301 -13 16.5s-4 14.334 -4 23.001v103c0 13.333 3.33301 24.333 10 33s16 13 28 13h428zM500.999 305.003l-0.000976562 90.999c0 10 -3.66699 18.667 -11 26s-16 11 -26 11h-414c-19.333 0 -29 -12.333 -29 -37v-91
c0 -24.667 9.66699 -37 29 -37h60v-44l47 44h86l19 -44l14 44h87l43 -44v44h58c6.66699 0 12.834 1.66699 18.501 5s10.167 7.83301 13.5 13.5s5 11.834 5 18.501zM229.998 402.002v-11h-152v11h152zM77.998 374.002h357v-11h-357v11zM77.998 335.002v11h357v-11h-357z
M295.998 302.002v10h139v-10h-139z" />
    <glyph glyph-name="community" unicode="&#xf12e;" 
d="M365 100h-84.999c-8 0 -15.333 2 -22 6s-11.834 9.33301 -15.501 16s-5.5 14 -5.5 22v95c0 12 4.16699 22.333 12.5 31s18.5 13 30.5 13h188c12.667 0 23.167 -4.33301 31.5 -13s12.5 -19 12.5 -31v-95c0 -12 -4.33301 -22.333 -13 -31s-19 -13 -31 -13h-46v-57z
M171.001 151l-77 -73v73h-50c-12 0 -22.333 4.33301 -31 13s-13 18.667 -13 30v138c0 12 4.33301 22.167 13 30.5s19 12.833 31 13.5h251c12 -0.666992 22.333 -5.16699 31 -13.5s13 -18.5 13 -30.5v-28h-88c-12 0 -22.333 -4.33301 -31 -13s-13 -19 -13 -31v-95
c0 -2 0.166992 -4.66699 0.5 -8s0.5 -5.33301 0.5 -6h-37z" />
    <glyph glyph-name="contact-us" unicode="&#xf12f;" 
d="M242 -30c21.333 0 39.8389 3.50781 55.5059 10.5078s27.167 15.5 34.5 25.5s12.5 19.5 15.5 28.5s3.83301 16.5 2.5 22.5c-22 -6.66699 -51.333 -4.33398 -88 6.99902s-68 31 -94 59c-33.333 36.667 -53.5 76.834 -60.5 120.501s3.16699 73.167 30.5 88.5
c13.333 8 25 9.5 35 4.5s19.333 -16.833 28 -35.5c4.66699 -9.33301 7.66699 -17.833 9 -25.5s1.16602 -13.834 -0.500977 -18.501s-3.5 -8.33398 -5.5 -11.001s-5 -5.5 -9 -8.5s-6.33301 -5.16699 -7 -6.5c-2.66699 -3.33301 -3.5 -8 -2.5 -14s3.83301 -13.5 8.5 -22.5
s11 -17.833 19 -26.5c13.333 -15.333 26.666 -26.5 39.999 -33.5s23.666 -10.167 30.999 -9.5c2 0 3.83301 0.666992 5.5 2s3.16699 2.66602 4.5 3.99902s2.33301 3 3 5s1.66699 3.83301 3 5.5s2.66602 3.16699 3.99902 4.5c9.33301 9.33301 31.333 6.66602 66 -8.00098
c14.667 -6 23.667 -15.333 27 -28s1 -23.334 -7 -32.001c-0.666992 -1.33301 -1 -2.83301 -1 -4.5s0.166992 -4.33398 0.5 -8.00098s0.5 -7.5 0.5 -11.5c0 -29.333 -12.5 -55.833 -37.5 -79.5s-61.5 -35.5 -109.5 -35.5c-70.667 0 -129 24.333 -175 73s-69 109 -69 181
c0 70.667 25 131.167 75 181.5s110.5 75.5 181.5 75.5s131.667 -25 182 -75s75.5 -110.333 75.5 -181v-1c0 -12.667 -1.66699 -27.167 -5 -43.5s-7.83301 -32.333 -13.5 -48s-11.834 -29.167 -18.501 -40.5c0 -0.666992 -0.666992 -1.83398 -2 -3.50098s-4 -3.66699 -8 -6
s-8 -1.83301 -12 1.5c-2.66699 2 -6 3.33301 -10 4c-2.66699 0.666992 -3.83398 1.66699 -3.50098 3s2.5 5.66602 6.5 12.999c1.33301 2.66699 2.66602 4.66699 3.99902 6c8 14.667 15.167 33.167 21.5 55.5s9.5 41.833 9.5 58.5v1c-0.666992 62 -23 115 -67 159
s-97.167 66 -159.5 66s-115.5 -22.167 -159.5 -66.5s-66 -97.5 -66 -159.5c0.666992 -63.333 20.834 -116.333 60.501 -159s90.167 -64 151.5 -64z" />
    <glyph glyph-name="customer-success" unicode="&#xf130;" 
d="M481 17l-0.00390625 -78.999h-450v79c0 16.667 11.333 32.167 34 46.5s48.5 27.666 77.5 39.999s46.5 21.5 52.5 27.5c2.66699 2.66699 4 6.33398 4 11.001v26c-2.66699 2 -6 5.5 -10 10.5s-10.333 16.333 -19 34s-15 36.5 -19 56.5c-3.33301 26 -4.33301 48.667 -3 68
c2 14 5.66699 27.333 11 40c2 4.66699 4.33301 9.33398 7 14.001c10.667 18 24 31.667 40 41c4 2.66699 8.33301 5 13 7c12 4.66699 24.333 7 37 7s25 -2.33301 37 -7c4.66699 -2 9 -4.33301 13 -7c16.667 -9.33301 30 -23 40 -41c2.66699 -4.66699 5 -9.33398 7 -14.001
c5.33301 -12.667 9 -26 11 -40c2 -26 1 -48.667 -3 -68l-7.5 -24.5c-2.33301 -7.66699 -4.66602 -14.5 -6.99902 -20.5s-4.66602 -11.667 -6.99902 -17s-4.66602 -9.83301 -6.99902 -13.5l-6.5 -10l-5 -7.5c-1.33301 -2 -2.66602 -3.66699 -3.99902 -5
s-2.33301 -2.16602 -3 -2.49902l-1 -0.5v-26c0 -4.66699 1.33301 -8.33398 4 -11.001c7.33301 -7.33301 30.333 -19 69 -35l-41 -47l-57 50l-33 -37l99 -86l82 94c30 -16.667 45 -34.334 45 -53.001zM475.996 136.001l-124 -143l-76 65l16 19l54 -48l109 125z" />
    <glyph glyph-name="dashboard" unicode="&#xf131;" 
d="M512 448v-512h-512v512h512zM25 424v-214h214v214h-214zM25 180v-214h214v214h-214zM487 -34v214h-214v-214h214zM487 210v214h-214v-214h214z" />
    <glyph glyph-name="data-blending" unicode="&#xf132;" 
d="M332 448c49.333 0 91.667 -17.666 127 -52.999s53 -77.666 53 -126.999c0 -42.667 -15 -81.5 -45 -116.5s-66.333 -55.5 -109 -61.5c-4 -28 -14.667 -53.833 -32 -77.5s-38.833 -42.334 -64.5 -56.001s-52.834 -20.5 -81.501 -20.5c-49.333 0 -91.5 17.667 -126.5 53
s-52.5 77.666 -52.5 126.999c0 42.667 14.833 81.5 44.5 116.5s65.834 55.5 108.501 61.5c6 42.667 26.5 79 61.5 109s73.833 45 116.5 45zM231.001 385.001c-7.33301 -6.66699 -14.6699 -15 -22.0029 -25s-13.666 -20.667 -18.999 -32s-8.66602 -22 -9.99902 -32h1
c16.667 0 33.334 -2.33301 50.001 -7v95v1zM270.997 98.001c-26 10 -48.668 24.667 -68.001 44c-7.33301 -0.666992 -14.666 -1 -21.999 -1c-42 0 -72.333 10 -91 30v-134c0 -12 8.83301 -22.167 26.5 -30.5s39 -12.5 64 -12.5s46.333 4.16699 64 12.5s26.5 18.5 26.5 30.5
v61zM179.996 152.001c4.66699 0 9 0.334961 13 1.00195c-8 10 -15.833 23.167 -23.5 39.5s-12.5 31.166 -14.5 44.499c-19.333 -2.66699 -35 -7.83398 -47 -15.501s-18 -16.5 -18 -26.5c0 -7.33301 4 -14.333 12 -21s19 -12 33 -16s29 -6 45 -6zM179.996 -38.9971h1
c23.333 0 46 5.66699 68 17s40.5 26.666 55.5 45.999s24.833 40.666 29.5 63.999h-2c-16.667 0 -33.334 2.33301 -50.001 7v-60c-0.666992 -14 -11 -26.167 -31 -36.5s-43.333 -15.5 -70 -15.5c-18 0 -34.667 2.33301 -50 7s-27.666 10.834 -36.999 18.501
s-14.333 16.5 -15 26.5v161c0 12 7 22.833 21 32.5s31.667 16.167 53 19.5c-0.666992 6.66699 -1 13.334 -1 20.001v2c-34.667 -6.66699 -64.5 -25 -89.5 -55s-37.5 -63 -37.5 -99c0 -42.667 15.167 -79.167 45.5 -109.5s66.833 -45.5 109.5 -45.5zM335.996 113.003
l0.000976562 1.50098v1.5v1c0 11.333 -1.33301 22.666 -4 33.999h-60c-0.666992 0 -1 0.333008 -1 1v22h-39c-0.666992 0 -1 0.333008 -1 1v89c-16.667 5.33301 -33.334 8 -50.001 8h-1h-3v-4c0 -42.667 15.167 -79.167 45.5 -109.5s66.833 -45.5 109.5 -45.5h4z
M396.997 194.004h17v-7h-17v-12c0 -0.666992 -0.333008 -1 -1 -1h-114v-13h143v193h-28v-32h17v-7h-17v-14h17v-7h-17v-15h17v-7h-17v-14h17v-6h-17v-16h17v-6h-17v-14h17v-7h-17v-15zM384.997 185.004v-1v191h-143v-190h143zM356.997 151.004
c2 -11.333 3.00098 -22.668 3.00098 -34.001v-1c7.33301 1.33301 15.666 3.83301 24.999 7.5s18.333 7.83398 27 12.501s15.667 9.66699 21 15h-76zM436.998 154.002l-0.998047 0.000976562h1c14.667 12.667 27.5 30.667 38.5 54s16.5 44.666 16.5 63.999
c0 42.667 -15.167 79.167 -45.5 109.5s-66.833 45.5 -109.5 45.5c-16.667 0 -35.334 -4 -56.001 -12s-37.334 -17.667 -50.001 -29h165l1 -1v-1v-20h39h1v-210zM336 242.003h-17v7h54v-7h-37zM346 285.003h-27v7h54v-7h-27zM346 264.003h-27v7h54v-7h-27zM346 349.003h-27v7
h54v-7h-27zM346 327.003h-27v7h54v-7h-27zM346 307.003h-27v7h54v-7h-27zM336 199.003h-17v7h54v-7h-37zM346 221.003h-27v7h54v-7h-27zM270 242.003h-16v7h54v-7h-38zM281 285.003h-27v7h54v-7h-27zM281 264.003h-27v7h54v-7h-27zM270 199.003h-16v7h54v-7h-38z
M281 221.003h-27v7h54v-7h-27zM281 349.003h-27v7h54v-7h-27zM281 327.003h-27v7h54v-7h-27zM281 307.003h-27v6h54v-6h-27z" />
    <glyph glyph-name="data-governance" unicode="&#xf133;" 
d="M450 304c11.333 0 18.334 -2.33301 21.001 -7s4 -14.667 4 -30v-262h-220c26.667 -12 46.5 -23.833 59.5 -35.5s19.5 -22.167 19.5 -31.5v-2h-333v1c0 12 8.16699 23.5 24.5 34.5s35.166 21 56.499 30s34 15.5 38 19.5c2 1.33301 3.33301 3 4 5
c0.666992 1.33301 1 3.66602 1 6.99902v9v6l-1 1c-2.66699 2.66699 -5 5.33398 -7 8.00098c-13.333 16 -22.333 38.333 -27 67c-2.66699 20 -3.33398 37 -2.00098 51c1.33301 10 4 19.667 8 29c1.33301 3.33301 3 7 5 11c7.33301 12.667 17.333 22.667 30 30
c2.66699 2 5.66699 3.66699 9 5c8.66699 3.33301 17.667 5 27 5c4 0 8 -0.333008 12 -1c4.66699 -0.666992 9 -2 13 -4v17c0 11.333 0.333008 19 1 23s2.83398 7.33301 6.50098 10s9.5 4 17.5 4h73l37 36v108h111v-70h-96v-38l36 -36h72zM342.001 433v-41h81v41h-81z
M450.001 275h-44l27 -27h17v27zM346.001 92h36v132h-36v-132zM246.001 175v-10v-3v-2c0 -14 -1.33301 -28.333 -4 -43c-1.33301 -8 -3.33301 -16.333 -6 -25h23v132h-33l3 -3c9.33301 -14 15 -29.333 17 -46zM284.001 224v-132h36v132h-36zM270.001 248h128l-64 64z
M262.001 275h-45v-27h17zM450.001 24v15h-240v-8c0 -2 0.666992 -4 2 -6v-1h238zM450.001 58v-1v15h-222l-8 -12l-2 -2h232zM407.001 92h43v132h-43v-132z" />
    <glyph glyph-name="deep-statistics" unicode="&#xf134;" 
d="M510 371c1.33301 0 2 -0.666992 2 -2v-248c0 -1.33301 -0.666992 -2 -2 -2h-142v-135c0 -1.33301 -0.666992 -2 -2 -2h-363c-2 0 -3 0.666992 -3 2v246c-0 2.66699 1.33301 4 4 4h140v-28h-116v-196h313v109h-137v-86h-39v86h-19c-1.33301 0 -2 0.666992 -2 2v247
c0 2 1.33301 3 4 3h362zM484 147v197h-312v-197h312zM269 165h-40v114h40v-114zM349 165h-40v167h40v-167zM432 165h-40v66h40v-66zM88 33v96h39v-96h-39zM286 102v-69h-38v69h38z" />
    <glyph glyph-name="discussion" unicode="&#xf135;" 
d="M121 349h391v-314h-391v120l-121 120v16h121v58zM46 266l100 -100v-106h340v264h-342v-58h-98zM442 242h-254v23h254v-23zM442 188h-254v23h254v-23zM360 135l-172 -1v23h172v-22z" />
    <glyph glyph-name="download" unicode="&#xf136;" 
d="M512 173h-138v25h113v223h-462v-223h113v-25h-138v273h512v-273zM269 106h106l-119 -170l-119 170h106v171h26v-171z" />
    <glyph glyph-name="elite-account-management" unicode="&#xf137;" 
d="M89 313h204v-29h-204v29zM89 220h204v-29h-204v29zM89 133h204v-29h-204v29zM354 176v238h-326v-418h296v-23h-320v460c0 0.666992 0.333008 1 1 1h373v-251zM508 26c-4.66699 -14.667 -12 -27.334 -22 -38.001l-26 15c-4 -4.66699 -8.66699 -8.66699 -14 -12l7 -29
c-13.333 -6.66699 -27.666 -10.667 -42.999 -12l-8 30c-6 0 -12 0.666992 -18 2l-15 -26c-14 4.66699 -26.667 12 -38 22l15 26c-4 4 -7.66699 8.66699 -11 14l-30 -8c-6.66699 13.333 -10.334 27.666 -11.001 42.999l30 8c0 6 0.666992 12 2 18l-27 15
c4.66699 14.667 12 27.334 22 38.001l27 -15c4 4 8.66699 7.66699 14 11l-8 30c13.333 6.66699 27.333 10.667 42 12l9 -29c6 -0.666992 12 -1.66699 18 -3l15 27c14 -4.66699 26.667 -12 38 -22l-16 -26c4.66699 -4 8.66699 -8.66699 12 -14l29 7
c6.66699 -13.333 10.667 -27.666 12 -42.999l-29 -9c-0.666992 -6 -1.66699 -12 -3 -18zM380 19c7.33301 -4 14.999 -6.00195 22.999 -6.00195s16 2.33301 24 7s13.667 10 17 16c4.66699 7.33301 7 15.333 7 24c0 13.333 -4.66699 24.666 -14 33.999s-20.5 14 -33.5 14
s-24.167 -4.66699 -33.5 -14s-14 -20.666 -14 -33.999c0 -7.33301 2.33301 -15.166 7 -23.499s10.334 -14.166 17.001 -17.499z" />
    <glyph glyph-name="email" unicode="&#xf138;" 
d="M172 132h-115c-1.33301 0 -2 0.666992 -2 2v21c0 1.33301 0.666992 2 2 2h115c1.33301 0 2 -0.666992 2 -2v-21c0 -1.33301 -0.333008 -2 -1 -2h-1zM118 199c0 -1.33301 -0.666992 -2 -2 -2h-95c-1.33301 0 -2 0.666992 -2 2v21c0 1.33301 0.666992 2 2 2h95
c1.33301 0 2 -0.666992 2 -2v-21zM512 346v-317c0 -2 -1.33301 -3 -4 -3h-393c-2 0 -3 1 -3 3v19c0 2 1 3 3 3h370c1.33301 0 2 0.333008 2 1v263c0 0.666992 -0.666992 1 -2 1h-1l-174 -175h-0.5h-1.5l-182 183h-1h-123c-0.666992 0 -1 0.666992 -1 2v20c0 2.66699 1 4 3 4
h504c2.66699 0 4 -1.33301 4 -4zM454 324h-289c-1.33301 0 -2 -0.333008 -2 -1s0.333008 -1 1 -1l143 -145h1.5h0.5l145 145c0.666992 0 1 0.333008 1 1s-0.333008 1 -1 1z" />
    <glyph glyph-name="embedded-analytics" unicode="&#xf139;" 
d="M420 -13c3.33301 0 5.00195 -1.66797 5.00195 -5.00098v-41c0 -3.33301 -1.66699 -5 -5 -5h-149v52c0 0.666992 -0.333008 1 -1 1h-28c-0.666992 0 -1 -0.333008 -1 -1v-52h-4v52c0 0.666992 -0.333008 1 -1 1h-28c-0.666992 0 -1 -0.333008 -1 -1v-52h-149
c-4 0 -6 1.66699 -6 5v41c0 3.33301 2 5 6 5h41c3.33301 0 5 1.66699 5 5v87c6 -6.66699 13.667 -10.334 23 -11.001v-46c0 -1.33301 0.666992 -2 2 -2h61c0.666992 0 1 0.666992 1 2v75c0 1.33301 -0.333008 2 -1 2h-30c0.666992 8.66699 -1.33301 16.334 -6 23.001l4 8h32
c0.666992 0 1 0.333008 1 1v25c5.33301 -0.666992 10.666 -0.666992 15.999 0v-25c0 -0.666992 0.333008 -1 1 -1h45l29 -42c-4.66699 -6 -6.66699 -13 -6 -21s4 -15 10 -21v-24c0 -1.33301 0.333008 -2 1 -2h61c1.33301 0 2 0.666992 2 2v75c0 1.33301 -0.666992 2 -2 2
h-25c-2 0.666992 -3.66699 1 -5 1c-7.33301 2.66699 -14.666 2.33398 -21.999 -0.999023l-25 34v68l11 1c0.666992 -2.66699 2 -5.33398 4 -8.00098v-63c0 -0.666992 0.333008 -1 1 -1h61c1.33301 0 2 0.333008 2 1v76c0 0.666992 -0.666992 1.33398 -2 2.00098h-2
c1.33301 12.667 -3.33398 22.667 -14.001 30h16c1.33301 0 2 0.666992 2 2v76c0 0.666992 -0.666992 1 -2 1h-61c-0.666992 0 -1 -0.333008 -1 -1v-76c0 -1.33301 0.333008 -2 1 -2h7c-6 -4 -10 -9.33301 -12 -16c-0.666992 -1.33301 -1 -3 -1 -5h-22
c-0.666992 7.33301 -2.66699 14.333 -6 21h17c0.666992 0 1 0.666992 1 2v76c0 0.666992 -0.333008 1 -1 1h-32l8 31h23c1.33301 0 2 0.666992 2 2v20c3.33301 2.66699 6.33301 5.66699 9 9c4.66699 7.33301 6.16699 15.5 4.5 24.5s-6.16699 16.167 -13.5 21.5v0
c0 1.33301 -0.666992 2 -2 2h-2l-4 1c-8 3.33301 -16 3 -24 -1h-31c-0.666992 0 -1 -0.666992 -1 -2v-75c0 -1.33301 0.333008 -2 1 -2h21l-9 -31h-12c-0.666992 0 -1 -0.333008 -1 -1v-44c-5.33301 0.666992 -10.333 0.666992 -15 0v44c0 0.666992 -0.666992 1 -2 1h-61
c-1.33301 0 -2 -0.333008 -2 -1v-24l-4 4c0 0.666992 0.333008 1.66699 1 3c1.33301 5.33301 1.66602 10.833 0.999023 16.5s-3 10.667 -7 15s-8.66699 7.5 -14 9.5v100c0 3.33301 1.66699 5 5 5h259c4 0 6 -1.66699 6 -5v-449c0 -3.33301 1.66699 -5 5 -5h41z
M191.002 350.999h1v75c0 1.33301 -0.666992 2 -2 2h-61c-1.33301 0 -2 -0.666992 -2 -2v-75c0 -1.33301 0.666992 -2 2 -2h61c0.666992 0 1 0.666992 1 2zM271.002 21.999v75c0 1.33301 -0.333008 2 -1 2h-62c-0.666992 0 -1 -0.666992 -1 -2v-75
c0 -1.33301 0.333008 -2 1 -2h61c1.33301 0 2 0.666992 2 2zM350.002 350.999v75c0 1.33301 -0.666992 2 -2 2h-61c-0.666992 0 -1 -0.666992 -1 -2v-75c0 -1.33301 0.333008 -2 1 -2h61c1.33301 0 2 0.666992 2 2zM104.002 123.999v81l23 1v-72
c-9.33301 -0.666992 -17 -4 -23 -10zM127.002 270.999l-0.000976562 -30c0 -1.33301 0.666992 -2 2 -2h18c-2 -4 -3.66699 -8.33301 -5 -13v-2v-1l-38 -1v58c2.66699 0.666992 5.33398 2 8.00098 4zM120.001 77.999c-6.66699 2 -11.3408 6.16504 -14.0078 12.498
s-3 12.666 -1 18.999s6.16699 11 12.5 14s12.5 3.16699 18.5 0.5l3 -1l32 52c-12 8.66699 -18.667 20.334 -20 35.001l-82 -2c-1.33301 -6.66699 -4.66602 -12 -9.99902 -16s-11.333 -5.66699 -18 -5s-12 3.83398 -16 9.50098s-5.5 11.834 -4.5 18.501s4.16699 12 9.5 16
s11.333 5.66699 18 5c11.333 -2 18 -8.33301 20 -19l83 2c0 1.33301 0.333008 3 1 5c1.33301 8 4.66602 15 9.99902 21l-53 47c-5.33301 -4.66699 -11.333 -6.5 -18 -5.5s-12.167 4.16699 -16.5 9.5s-6.16602 11.333 -5.49902 18s3.66699 12 9 16s11.333 5.66699 18 5
s12.334 -3.66699 17.001 -9c6.66699 -8.66699 7 -18 1 -28l54 -46c11.333 10 24.666 13.667 39.999 11l32 114c-6 4 -9.66699 9.33301 -11 16s-0.166016 12.834 3.50098 18.501s8.83398 9.33398 15.501 11.001s12.834 0.666992 18.501 -3s9.33398 -8.83398 11.001 -15.501
s0.5 -13 -3.5 -19c-6 -9.33301 -14.667 -13 -26 -11l-31 -113c10 -3.33301 18 -9.5 24 -18.5s9 -18.5 9 -28.5l38 1c0.666992 6.66699 3.66699 12.167 9 16.5s11.333 6.16602 18 5.49902s12.334 -3.5 17.001 -8.5s6.66699 -11 6 -18s-3.66699 -12.667 -9 -17
s-11.333 -6.16602 -18 -5.49902c-11.333 0.666992 -18.666 6.66699 -21.999 18l-40 -1c-2.66699 -10.667 -8 -19.667 -16 -27l63 -87c6 3.33301 12.333 4.16602 19 2.49902s11.667 -5.5 15 -11.5s4.16602 -12.167 2.49902 -18.5s-5.5 -11.166 -11.5 -14.499
s-12.333 -4.16602 -19 -2.49902s-11.667 5.5 -15 11.5c-5.33301 9.33301 -4.33301 18.333 3 27l-64 88c-15.333 -10 -31.333 -11 -48 -3l-32 -52c4.66699 -5.33301 6.83398 -11.333 6.50098 -18s-3.16602 -12.334 -8.49902 -17.001
c-6.66699 -6.66699 -14.667 -8.33398 -24 -5.00098z" />
    <glyph glyph-name="export" unicode="&#xf13a;" 
d="M241 -33h-241v450h241v-120h-30v91h-180v-392h180v90h30v-119zM512 188l-150 -105v90h-241v31h241v90z" />
    <glyph glyph-name="fast" unicode="&#xf13b;" 
d="M506 144l-0.00195312 -1.00098c0 -28.667 -7.16699 -60.167 -21.5 -94.5s-31.5 -61.5 -51.5 -81.5h-59c22.667 15.333 42 34.666 58 57.999l-13 10c-1.33301 1.33301 -2 3 -2 5s0.333008 3.66699 1 5l12 14c1.33301 2 3 3 5 3s3.66699 -0.666992 5 -2l8 -7
c10.667 22.667 17 46.667 19 72h-15c-4 0 -6 2.33301 -6 7v19c0 4.66699 2 7 6 7h16c-2 27.333 -9 53.333 -21 78l-15 -10c-1.33301 -0.666992 -2.66602 -1 -3.99902 -1c-2 0 -3.66699 0.666992 -5 2l-11 16c-1.33301 1.33301 -2 2.66602 -2 3.99902c0 2 1 3.66699 3 5
l17 12c-14 20.667 -31 38 -51 52l-17 -20c-1.33301 -1.33301 -3 -2 -5 -2c-1.33301 0 -2.66602 0.666992 -3.99902 2l-15 12c-1.33301 1.33301 -2 3 -2 5c0 1.33301 0.333008 2.66602 1 3.99902l14 16c-24.667 12.667 -51 20 -79 22v-25c0 -4.66699 -2 -7 -6 -7h-19
c-4.66699 0 -7 2.33301 -7 7v25c-27.333 -2 -53.333 -9 -78 -21l14 -17c1.33301 -1.33301 2 -2.66602 2 -3.99902c0 -2 -1 -3.66699 -3 -5l-14 -12c-1.33301 -1.33301 -3 -2 -5 -2s-3.66699 0.666992 -5 2l-17 21c-20 -14 -37.333 -31.333 -52 -52l18 -13
c2 -1.33301 3 -3 3 -5c0 -1.33301 -0.333008 -2.66602 -1 -3.99902l-11 -16c-1.33301 -1.33301 -3.33301 -2 -6 -2c-1.33301 0 -2.66602 0.333008 -3.99902 1l-15 11c-12.667 -25.333 -20 -51.666 -22 -78.999h17c4.66699 0 7 -2.33301 7 -7v-19
c0 -4.66699 -2.33301 -7 -7 -7h-16c2 -25.333 8.33301 -49.666 19 -72.999l10 8c1.33301 1.33301 2.66602 2 3.99902 2c2 0 3.66699 -1 5 -3l12 -15c1.33301 -0.666992 2 -2 2 -4s-1 -3.66699 -3 -5l-13 -11c15.333 -22.667 34.333 -41.667 57 -57h-59
c-20 20 -37.167 47.167 -51.5 81.5s-21.5 65.833 -21.5 94.5v1c0 68.667 24.333 127.5 73 176.5s107.667 73.5 177 73.5s128.333 -24.5 177 -73.5s73 -107.833 73 -176.5zM377.998 201.999c0.666992 -1.33301 1.00098 -2.33496 1.00098 -3.00195
c0 -2.66699 -1 -4.66699 -3 -6l-87 -50c0 -9.33301 -3.33301 -17.333 -10 -24s-14.667 -10 -24 -10s-17.333 3.33301 -24 10s-10 14.834 -10 24.501s3.33301 17.834 10 24.501s14.667 10 24 10c7.33301 0 13.666 -2 18.999 -6l86 49c0.666992 0.666992 1.66699 1 3 1
c2.66699 0 4.66699 -1.33301 6 -4z" />
    <glyph glyph-name="find-training" unicode="&#xf13c;" 
d="M512 192c0 -64.667 -22.999 -119.999 -68.999 -165.999s-101.333 -69 -166 -69c-50.667 0 -96.5 15 -137.5 45s-69.167 68.667 -84.5 116h30c10 -27.333 24.167 -50.833 42.5 -70.5s40.166 -34.667 65.499 -45s53.333 -15.5 84 -15.5c60 0 109.333 19.333 148 58
s58 87.667 58 147c0 60 -19.5 110.333 -58.5 151s-88.167 61 -147.5 61c-55.333 0 -102.333 -17.167 -141 -51.5s-60.667 -78.5 -66 -132.5l29 25l17 -18l-65 -55l-50 63l20 16l23 -31c6 59.333 31.167 108.666 75.5 147.999s96.833 59 157.5 59c64.667 0 120 -23 166 -69
s69 -101.333 69 -166zM250.001 322.001h24v-133h71v-26h-95v159z" />
    <glyph glyph-name="folder" unicode="&#xf13d;" 
d="M492 315c1.33301 0 1.99707 -1 1.99707 -3v-319c0 -0.666992 -81 -1 -243 -1s-243 0.333008 -243 1v336c0 2 0.666992 3 2 3h49c0.666992 0 1.33398 0.333008 2.00098 1l31 31c0.666992 0.666992 1.33398 1 2.00098 1h97c0.666992 0 1.33398 -0.333008 2.00098 -1l49 -48
c0 -0.666992 0.333008 -1 1 -1h249zM468.997 17l0.000976562 269.001c0 1.33301 -0.666992 2 -2 2h-232c-0.666992 0 -1.33398 0.333008 -2.00098 1l-51 50c0 0.666992 -0.333008 1 -1 1h-77c-0.666992 0 -1 -0.333008 -1 -1l-32 -31
c0 -0.666992 -0.666992 -1.33398 -2 -2.00098h-34c-1.33301 0 -2 -0.666992 -2 -2v-287h436z" />
    <glyph glyph-name="forums" unicode="&#xf13e;" 
d="M159 448h302v-164h-56v-68l-77 68h-169v164zM322 352v13h-133v-13h133zM434 390v14h-245v-14h245zM383 160h78v-224h-410v224h227v92zM421 -4h-1v18h-332v-18h333zM421 48h-1v19h-332v-19h333zM421 100v1v18h-181v-19h181z" />
    <glyph glyph-name="globe" unicode="&#xf13f;" 
d="M256 448c70.667 0 131 -25 181 -75s75 -110.333 75 -181s-25 -131 -75 -181s-110.333 -75 -181 -75s-131 25 -181 75s-75 110.333 -75 181s25 131 75 181s110.333 75 181 75zM479 192c0 26.667 -4.66699 52.334 -14 77.001h-96c3.33301 -25.333 5 -51 5 -77v0
c0 -22.667 -1.33301 -45.334 -4 -68.001h98c7.33301 22 11 44.667 11 68zM256 -31c13.333 0 27.167 11.1689 41.5 33.502s25.5 51.833 33.5 88.5h-150c5.33301 -24.667 12.333 -46.334 21 -65.001s17.667 -32.834 27 -42.501s18.333 -14.5 27 -14.5zM176.001 124.002h160
c3.33301 22.667 5 45 5 67v1v1c0 25.333 -2 50.666 -6 75.999h-158c-4 -25.333 -6 -50.666 -6 -75.999v-1v-1c0 -22 1.66699 -44.333 5 -67zM33.001 192.002c0 -23.333 3.66699 -46 11 -68h98c-2.66699 22.667 -4 45.334 -4 68.001c0 26 1.66699 51.667 5 77h-96
c-9.33301 -24.667 -14 -50.334 -14 -77.001zM256.001 415.002c-12.667 0 -25.832 -10.167 -39.499 -30.5s-24.5 -47.833 -32.5 -82.5h144c-8 34.667 -18.833 62.167 -32.5 82.5s-26.834 30.5 -39.501 30.5zM449.003 302.002c-12 21.333 -30.5 42 -55.5 62
s-48.833 33.667 -71.5 41c18 -26 31.667 -60.333 41 -103h86zM190.003 405.002c-22.667 -7.33301 -46.5 -21 -71.5 -41s-43.5 -40.667 -55.5 -62h86c9.33301 42.667 23 77 41 103zM58.0029 91.002c11.333 -23.333 29.999 -45.833 55.999 -67.5s51.333 -36.5 76 -44.5
c-19.333 28.667 -33.666 66 -42.999 112h-89zM322.002 -20.998c24.667 8 49.999 22.833 75.999 44.5s44.667 44.167 56 67.5h-89c-9.33301 -46 -23.666 -83.333 -42.999 -112z" />
    <glyph glyph-name="help" unicode="&#xf140;" 
d="M437 373c50 -50 75 -110.333 75 -181s-25 -131 -75 -181s-110.333 -75 -181 -75s-131 25 -181 75s-75 110.333 -75 181s25 131 75 181s110.333 75 181 75s131 -25 181 -75zM417 31c44.667 44.667 67 98.334 67 161.001s-22.333 116.334 -67 161.001
s-98.334 67 -161.001 67s-116.334 -22.333 -161.001 -67s-67 -98.334 -67 -161.001s22.333 -116.334 67 -161.001s98.334 -67 161.001 -67s116.334 22.333 161.001 67zM267 114l-31 0.00292969c0 1.33301 -0.333008 3.66602 -1 6.99902v8v3.5v3.5v8
c0 7.33301 0.666992 14.333 2 21s3.66602 12.667 6.99902 18s7.5 10.166 12.5 14.499s11.5 8.83301 19.5 13.5l22 14c5.33301 4 10 8.16699 14 12.5s6.66699 9.5 8 15.5c2 5.33301 3 11.666 3 18.999s-1.33301 14 -4 20s-6.66699 11 -12 15s-11.666 7 -18.999 9
c-8 2.66699 -16.333 4 -25 4s-17 -1 -25 -3c-7.33301 -2.66699 -14 -5.66699 -20 -9c-6.66699 -4 -12.667 -8.33301 -18 -13c-5.33301 -5.33301 -10.333 -11 -15 -17l-26 21c6 8 12.667 15.333 20 22s15.333 12.5 24 17.5s18 8.83301 28 11.5c10.667 2.66699 22 4 34 4
c14.667 0 28 -2 40 -6s22.167 -9.5 30.5 -16.5s14.5 -15.5 18.5 -25.5c4.66699 -9.33301 7 -20 7 -32c0 -10 -1.33301 -19 -4 -27s-6.5 -15 -11.5 -21s-10.833 -11.333 -17.5 -16c-6 -4.66699 -13.333 -9.66699 -22 -15c-10 -6 -17.5 -11.167 -22.5 -15.5
s-8.66699 -9.33301 -11 -15s-3.83301 -12.167 -4.5 -19.5c-0.666992 -6.66699 -1 -17 -1 -31zM273 24.0029h-44v45h44v-45z" />
    <glyph glyph-name="ideas" unicode="&#xf141;" 
d="M251 448c44.667 0 82.5039 -15.666 113.504 -46.999s46.5 -70.333 46.5 -117c0 -28.667 -6.16699 -55.334 -18.5 -80.001s-29.5 -44.334 -51.5 -59.001c-5.33301 -4 -8.83301 -9.5 -10.5 -16.5s-2.5 -19.167 -2.5 -36.5v-93c0 -2 -0.166992 -4.33301 -0.5 -7
s-1.83301 -7.66699 -4.5 -15s-6.5 -13.666 -11.5 -18.999s-12.833 -10.333 -23.5 -15s-23 -7 -37 -7c-10.667 0 -20.167 1.16699 -28.5 3.5s-15 5.33301 -20 9s-9.33301 7.66699 -13 12s-6.33398 8.66602 -8.00098 12.999s-2.83398 8.33301 -3.50098 12
s-1 6.83398 -1 9.50098v3v94c0 8 -0.333008 14.667 -1 20l-1.5 12c-0.333008 2.66699 -1.83301 5.5 -4.5 8.5s-4.33398 4.83301 -5.00098 5.5s-3.33398 2.66699 -8.00098 6c-21.333 16 -37.833 36.5 -49.5 61.5s-17.5 51.167 -17.5 78.5c0 46.667 15.667 85.667 47 117
s69.333 47 114 47zM301.004 -8.99902l0.000976562 20.002h-98v-20c0 -0.666992 0.166992 -1.66699 0.5 -3s1.33301 -3.83301 3 -7.5s4 -6.83398 7 -9.50098s7.66699 -5.16699 14 -7.5s13.833 -3.5 22.5 -3.5c14.667 0 26.167 2.66699 34.5 8s13.166 10.666 14.499 15.999z
M301.005 38.0029v32h-99v-32h99zM316.005 159.003c20.667 12.667 36.999 30.166 48.999 52.499s18 46.5 18 72.5c0 39.333 -12.667 72 -38 98s-56.666 39 -93.999 39c-25.333 0 -48 -5.83301 -68 -17.5s-35.667 -28 -47 -49s-17 -44.5 -17 -70.5
c0 -26.667 5.66699 -51.334 17 -74.001s27.333 -39.667 48 -51c12.667 -7.33301 19 -18.666 19 -33.999v-33h32v152h-16c-5.33301 0 -8 2.33301 -8 7c0 2 0.666992 3.5 2 4.5s2.66602 1.5 3.99902 1.5l2 1h16v8c-1.33301 14 4 21 16 21c6 0 10.5 -1.83301 13.5 -5.5
s4.5 -7.16699 4.5 -10.5v-5v-8h16c5.33301 0 8 -2.33301 8 -7c0 -2 -0.666992 -3.66699 -2 -5s-2.66602 -2 -3.99902 -2h-2h-16v-152h32v34c0 6.66699 1.33301 12.834 4 18.501s5 9.5 7 11.5z" />
    <glyph glyph-name="invite-people" unicode="&#xf142;" 
d="M408 88v64h-72v38h72v73h38v-73h66v-38h-66v-64h-38zM0 -64l-0.000976562 79.002v1c0 16.667 11.5 32.334 34.5 47.001s49 28 78 40s46.5 21 52.5 27c3.33301 3.33301 5 7.33301 5 12l-1 26l-3.5 3.5c-1.66699 1.66699 -4.66699 5.66699 -9 12s-8.5 13.166 -12.5 20.499
s-8.16699 17 -12.5 29s-7.5 24.333 -9.5 37c-4 26.667 -5 49.667 -3 69c1.33301 14 4.66602 27.333 9.99902 40c2 4.66699 4.33301 9.33398 7 14.001c10.667 18 24.334 32 41.001 42c4 2 8.33301 4 13 6c12 4.66699 24.333 7 37 7s25 -2.33301 37 -7c4.66699 -2 9 -4 13 -6
c16.667 -10 30.334 -24 41.001 -42c2.66699 -4.66699 5 -9.33398 7 -14.001c5.33301 -12.667 8.66602 -26 9.99902 -40c2.66699 -26.667 1.66699 -49.667 -3 -69c-2 -8.66699 -4.33301 -17 -7 -25s-5.16699 -15 -7.5 -21s-4.66602 -11.5 -6.99902 -16.5l-6.5 -13.5
c-2 -4 -4 -7.5 -6 -10.5s-3.83301 -5.5 -5.5 -7.5s-3 -3.5 -4 -4.5l-2.5 -2.5l-1 -1c-0.666992 -0.666992 -1 -9.33398 -1 -26.001c0 -4.66699 1.66699 -8.66699 5 -12c6 -6 23.5 -15 52.5 -27s55 -25.333 78 -40s34.5 -30.334 34.5 -47.001v-1v-79h-454z" />
    <glyph glyph-name="knowledge-base" unicode="&#xf143;" 
d="M246 448c52.667 0 97.498 -18.667 134.498 -56s55.5 -83.333 55.5 -138c0 -22 -3.33301 -43.5 -10 -64.5s-16.167 -40 -28.5 -57s-27.166 -31.5 -44.499 -43.5c-6 -4 -10.167 -10.167 -12.5 -18.5s-3.5 -22.833 -3.5 -43.5v-26h-178v26
c0 15.333 -0.833008 26.833 -2.5 34.5s-3.66699 12.667 -6 15s-7.16602 6.5 -14.499 12.5c-25.333 18.667 -45 42.667 -59 72s-21 60.333 -21 93c0 54.667 18.5 100.667 55.5 138s81.833 56 134.5 56zM323.998 106c24 14.667 43.167 35.332 57.5 61.999
s21.5 55.334 21.5 86.001c0 46.667 -15 85.334 -45 116.001s-67.333 46 -112 46s-81.667 -15.333 -111 -46s-44 -69.334 -44 -116.001c0 -31.333 6.66699 -60.333 20 -87s32 -46.667 56 -60c14.667 -9.33301 22 -23 22 -41v-39h23v173l-50 49l-1 8h30l51 -51v-179h17l-1 179
l51 51h28v-8l-48 -49v-173h17v40c0 8 1.5 15.333 4.5 22s5.83301 11 8.5 13zM172.998 -28.002h148v-36h-148v36z" />
    <glyph glyph-name="like" unicode="&#xf144;" 
d="M506 154c5.33301 -4.66699 7.16016 -13.3262 5.49316 -25.9932s-5.5 -21.334 -11.5 -26.001c-5.33301 -4 -6.66602 -8 -3.99902 -12c4 -6 4.33301 -15.167 1 -27.5s-8.33301 -20.5 -15 -24.5c-2.66699 -1.33301 -4 -4.66602 -4 -9.99902
c-0.666992 -2 -1.16699 -4.33301 -1.5 -7s-1.16602 -6.5 -2.49902 -11.5s-3.16602 -9.83301 -5.49902 -14.5s-5.16602 -9 -8.49902 -13s-7.66602 -7.33301 -12.999 -10s-11 -4 -17 -4h-218c-3.33301 0 -6 1 -8 3s-3.66699 3 -5 3s-2.5 -1.66699 -3.5 -5
s-3.5 -6.83301 -7.5 -10.5s-10 -5.5 -18 -5.5h-135c-8.66699 0 -16.5 3.66699 -23.5 11s-10.167 14.666 -9.5 21.999c1.33301 6 2 30.167 2 72.5s-0.333008 83.166 -1 122.499l-1 59c0.666992 2 1.33398 4.5 2.00098 7.5s4 7.16699 10 12.5s13.667 8 23 8h139
c9.33301 0 15.666 -1.83301 18.999 -5.5s5.16602 -7.5 5.49902 -11.5s1.16602 -6 2.49902 -6c2 0 4.66699 0.833008 8 2.5s7.5 5.16699 12.5 10.5s9.83301 12.166 14.5 20.499s9.16699 20 13.5 35s7.83301 31.833 10.5 50.5c1.33301 7.33301 5 14 11 20
s13.167 10.167 21.5 12.5s17.833 0.666016 28.5 -5.00098s20.334 -15.834 29.001 -30.501c6.66699 -10 11.334 -20.333 14.001 -31s3.83398 -20 3.50098 -28s-1.16602 -15.333 -2.49902 -22s-2.66602 -12.334 -3.99902 -17.001s-2 -8 -2 -10c0.666992 -2 5 -3 13 -3h76
c6.66699 0 13.667 -1.5 21 -4.5s15 -7.66699 23 -14s13 -15 15 -26s0.666992 -24.5 -4 -40.5c-2.66699 -4.66699 -2.33398 -8.33398 0.999023 -11.001zM171.994 -14.9922v251h-136v-251h136zM471.994 150.008c-2.66699 2.66699 -2.66895 5.66797 -0.00195312 9.00098
c4.66699 11.333 6.5 20.833 5.5 28.5s-3.16699 14 -6.5 19s-7.66602 9 -12.999 12s-9.83301 5 -13.5 6s-6.5 1.5 -8.5 1.5l-98 -1c-5.33301 0 -8.66602 2.66699 -9.99902 8c0 0.666992 2.33301 7.66699 7 21s7.83398 26.833 9.50098 40.5s-1.5 29.167 -9.5 46.5
c-12 20 -22.833 29 -32.5 27s-15.167 -10.667 -16.5 -26c-3.33301 -26.667 -9.83301 -51.5 -19.5 -74.5s-19.834 -37.167 -30.501 -42.5c-7.33301 -4 -11 -6.33301 -11 -7v-211c0 -5.33301 3 -8 9 -8h176c12 0 21.167 6 27.5 18s9.83301 21.667 10.5 29
c0 4.66699 1 7.33398 3 8.00098c5.33301 3.33301 9.33301 10.166 12 20.499s2.66699 18.166 0 23.499c-2 3.33301 -1.33301 6.33301 2 9c5.33301 3.33301 8.83301 10.5 10.5 21.5s0.5 18.167 -3.5 21.5z" />
    <glyph glyph-name="link" unicode="&#xf145;" 
d="M486 136c17.333 -18 26 -39.5 26 -64.5s-9 -46.167 -27 -63.5l-46 -46c-17.333 -17.333 -38.333 -26 -63 -26c-25.333 0 -46.666 9 -63.999 27l-65 65c-17.333 17.333 -26 38.333 -26 63c0 26 9 48 27 66l-27 27c-18 -18 -39.667 -27 -65 -27s-46.666 8.66699 -63.999 26
l-66 65c-17.333 18 -26 39.5 -26 64.5s9 46.167 27 63.5l46 46c17.333 17.333 38.333 26 63 26c25.333 0 46.666 -9 63.999 -27l65 -65c17.333 -17.333 26 -38.333 26 -63c0 -26 -9 -48 -27 -66l27 -27c18 18 39.667 27 65 27s46.666 -8.66699 63.999 -26zM221 270
c6.66699 6.66699 9.99805 14.3311 9.99805 22.998c0 8 -3 15 -9 21l-64 65c-6 6 -13.333 9 -22 9c-8 0 -15 -3 -21 -9l-46 -46c-6 -5.33301 -9 -12.333 -9 -21c0 -8 3 -15 9 -21l65 -65c6 -6 13.333 -9 22 -9s16 3.33301 22 10l-6 6
c-3.33301 3.33301 -5.5 5.66602 -6.5 6.99902l-4.5 6c-2 2.66699 -3.33301 5.33398 -4 8.00098s-1 5.33398 -1 8.00098c0 8.66699 2.83301 15.834 8.5 21.501s12.834 8.5 21.501 8.5c2.66699 0 5.33398 -0.333008 8.00098 -1s5.33398 -2 8.00098 -4l6 -4.5
c1.33301 -1 3.66602 -3.16699 6.99902 -6.5zM442.998 50.9971c6 5.33301 9.00195 12.3359 9.00195 21.0029c0 8 -3 15 -9 21l-65 65c-6 6 -13.333 9 -22 9s-16 -3.33301 -22 -10l6 -6c3.33301 -3.33301 5.5 -5.66602 6.5 -6.99902l4.5 -6
c2 -2.66699 3.33301 -5.33398 4 -8.00098s1 -5.33398 1 -8.00098c0 -8.66699 -2.83301 -15.834 -8.5 -21.501s-12.834 -8.5 -21.501 -8.5c-2.66699 0 -5.33398 0.333008 -8.00098 1s-5.33398 2 -8.00098 4l-6 4.5c-1.33301 1 -3.66602 3.16699 -6.99902 6.5
c-3.33301 4 -5.33301 6 -6 6c-6.66699 -6.66699 -10 -14.334 -10 -23.001c0 -8 3 -15 9 -21l64 -65c6 -5.33301 13.333 -8 22 -8c8 0 15 2.66699 21 8z" />
    <glyph glyph-name="location-style2" unicode="&#xf146;" 
d="M256 448c50 0 92.8311 -18.501 128.498 -55.501s53.5 -81.833 53.5 -134.5c0 -43.333 -29 -108.333 -87 -195c-23.333 -35.333 -51.666 -73.666 -84.999 -114.999l-10 -12l-10 12c-33.333 41.333 -61.666 80 -84.999 116c-58 86 -87 150.667 -87 194
c0 52.667 17.833 97.5 53.5 134.5s78.5 55.5 128.5 55.5zM328.998 79.999c54.667 81.333 82.001 140.667 82.001 178c0 44.667 -15.167 82.834 -45.5 114.501s-66.833 47.5 -109.5 47.5s-79.167 -15.833 -109.5 -47.5s-45.5 -69.834 -45.5 -114.501
c0 -37.333 27.333 -96.666 82 -177.999c21.333 -32.667 45.666 -66.334 72.999 -101.001c26.667 34 51 67.667 73 101zM255.999 360c20 0 37 -7 51 -21s21 -30.833 21 -50.5s-7 -36.5 -21 -50.5s-31 -21 -51 -21s-37 7 -51 21s-21 30.833 -21 50.5s7 36.5 21 50.5
s31 21 51 21zM255.499 244c12.333 0 23.002 4.33301 32.002 13s13.5 19.167 13.5 31.5s-4.33301 22.833 -13 31.5s-19.334 13 -32.001 13s-23.334 -4.33301 -32.001 -13s-13 -19.167 -13 -31.5s4.33301 -22.833 13 -31.5s19.167 -13 31.5 -13z" />
    <glyph glyph-name="location" unicode="&#xf147;" 
d="M256 448c50 0 92.835 -17.833 128.502 -53.5s53.5 -78.5 53.5 -128.5c0 -44 -17.333 -97 -52 -159s-74.334 -115.333 -119.001 -160l-11 -11l-11 11c-44.667 44.667 -84.334 98 -119.001 160s-52 115 -52 159c0 50 17.833 92.833 53.5 128.5s78.5 53.5 128.5 53.5z
M256.002 189c22 0 41 7.83301 57 23.5s24 34.667 24 57s-8 41.333 -24 57s-35 23.5 -57 23.5s-41 -7.83301 -57 -23.5s-24 -34.667 -24 -57s8 -41.333 24 -57s35 -23.5 57 -23.5z" />
    <glyph glyph-name="lower-risk" unicode="&#xf148;" 
d="M370 -62l-369.998 0.00195312v79c0 16.667 11.5 32.334 34.5 47.001s48.833 28 77.5 40s46 21 52 27c3.33301 3.33301 4.66602 7.33301 3.99902 12v25c-2.66699 2.66699 -6 6.5 -10 11.5s-10.167 16.333 -18.5 34s-14.5 36.5 -18.5 56.5c-4 26 -5 49 -3 69
c1.33301 13.333 4.66602 26.333 9.99902 39c2 5.33301 4.33301 10.333 7 15c10.667 18 24.334 31.667 41.001 41c4 2.66699 8.33301 4.66699 13 6c11.333 4.66699 23.5 7 36.5 7s25.5 -2.33301 37.5 -7c4 -1.33301 8.33301 -3.33301 13 -6c16 -10 29.333 -23.667 40 -41
c2.66699 -4.66699 5 -9.66699 7 -15c5.33301 -12.667 9 -25.667 11 -39c2.66699 -26.667 1.66699 -49.667 -3 -69c-13.333 -50 -29 -83.667 -47 -101l-1 -1v-25c0 -4.66699 1.33301 -8.66699 4 -12c3.33301 -2.66699 8 -5.83398 14 -9.50098s11.667 -6.66699 17 -9l25 -11
c11.333 -5 19.666 -8.5 24.999 -10.5c-10 -8.66699 -18.333 -20.334 -25 -35.001s-10 -28.334 -10 -41.001s3.66699 -26.667 11 -42s16 -27 26 -35zM512.002 15.502c0 -21.667 -7.66699 -40.334 -23 -56.001s-33.833 -23.5 -55.5 -23.5s-40.167 7.83301 -55.5 23.5
s-23 34.334 -23 56.001s7.66699 40.167 23 55.5s33.833 23 55.5 23s40.167 -7.66699 55.5 -23s23 -33.833 23 -55.5zM425.002 69.002l2 -83h13l2 83h-17zM443.002 -33.998c0 6 -3.16699 9 -9.5 9s-9.5 -3 -9.5 -9s3.16699 -9 9.5 -9s9.5 3 9.5 9z" />
    <glyph glyph-name="metadata" unicode="&#xf149;" 
d="M0 -19l12 86l74 -74zM394 448l73 -74l-57 -57l-22 23l33 33l-28 28l-33 -33l-24 23zM114 66l265 265l22 -23l-264 -264zM64 117l264 265l23 -23l-265 -265zM54 108l74 -73l-33 -33l-74 74zM0 -20h512v-44h-512v44z" />
    <glyph glyph-name="mobile-menu" unicode="&#xf14a;" 
d="M0 356h512v-45h-512v45zM0 164v45h512v-45h-512zM0 28v45h512v-45h-512z" />
    <glyph glyph-name="mobile" unicode="&#xf14b;" 
d="M405 -21c0 -20 -2 -32.167 -6 -36.5s-17 -6.5 -39 -6.5h-194c-22 0 -35 2.16699 -39 6.5s-6 16.5 -6 36.5l1 432c0 10.667 0.166992 18.167 0.5 22.5s2.33301 7.83301 6 10.5s9.5 4 17.5 4h233c11.333 0 18.5 -2.33301 21.5 -7s4.5 -14.667 4.5 -30v-432zM263.5 -40
c5 0 9.16699 1.66699 12.5 5s5 7.33301 5 12s-1.66699 8.66699 -5 12s-7.5 5 -12.5 5s-9.16699 -1.66699 -12.5 -5s-5 -7.33301 -5 -12s1.66699 -8.66699 5 -12s7.5 -5 12.5 -5zM379 14v405h-233v-405h233z" />
    <glyph glyph-name="newsletter" unicode="&#xf14c;" 
d="M510 363c1.33301 0 2 -0.666992 2 -2v-332c0 -2 -0.666992 -3 -2 -3h-508c-1.33301 0 -2 0.666992 -2 2v333c0 1.33301 0.666992 2 2 2h508zM464 335h-417l206 -151c1.33301 -0.666992 2.33301 -0.666992 3 0zM26 321v-242l155 127zM39 55h432l-160 135l-55 -40h-2
l-55 40zM484 75v242l-155 -115z" />
    <glyph glyph-name="nic-cage" unicode="&#xf14d;" 
d="M0 85l16.498 9.99707c7.66699 4.66699 14.334 8.5 20.001 11.5s11.167 5.5 16.5 7.5c4.66699 2 27.334 8.33301 68.001 19c0 0.666992 2 1.33398 6 2.00098l-13 29c-10.667 18.667 -13.334 40.334 -8.00098 65.001c10.667 46.667 35.334 84 74.001 112
c22 16 54 22.333 96 19c20.667 -1.33301 36.667 -8.33301 48 -21s19 -28.667 23 -48l-13 20c-18 26.667 -42 35.667 -72 27c-26 -7.33301 -49 -18.666 -69 -33.999c-12 -8.66699 -19 -17.667 -21 -27s0 -20.666 6 -33.999c0.666992 -1.33301 2.66699 -8 6 -20
c5.33301 -24.667 9 -41 11 -49l5 -12c-12.667 6.66699 -19.667 10.167 -21 10.5s-8.33301 1.5 -21 3.5l-2 -21c2 -22.667 13.333 -37.334 34 -44.001c2.66699 -1.33301 4.33398 -2.33301 5.00098 -3c10 -17.333 15.333 -27.666 16 -30.999
c1.33301 -4.66699 5.66602 -22.334 12.999 -53.001h-224v61zM353.998 23.9971l6.00098 28.9971c-5.33301 0.666992 -9.66602 -0.333008 -12.999 -3s-6.66602 -6.16699 -9.99902 -10.5s-6 -7.5 -8 -9.5c1.33301 3.33301 3.66602 8.33301 6.99902 15
c-2.66699 0.666992 -9 2.66699 -19 6c0.666992 0 1 0.333008 1 1v1c4 -1.33301 6.33301 -2 7 -2c9.33301 -3.33301 16.666 -3 21.999 1c0.666992 0.666992 4 2 10 4c14.667 3.33301 22 12.333 22 27c0 4.66699 0.5 15.334 1.5 32.001s1.5 29.334 1.5 38.001
c-0.666992 18 -2.66699 40 -6 66c-0.666992 2 -2 5.33301 -4 10s-3.33301 7.66699 -4 9c9.33301 -11.333 14.666 -27.333 15.999 -48v-23c0 -7.33301 4 -11.666 12 -12.999c32 -5.33301 60.667 -14 86 -26c10.667 -5.33301 17.667 -8.66602 21 -9.99902
c6 -2.66699 9 -7.33398 9 -14.001v-80h-158zM305.999 139.994c22.667 8 39.335 13.667 50.002 17l1 -1l2 -2c-6 -15.333 -9.66699 -24.333 -11 -27c-2 -4 -4.66699 -6 -8 -6c-9.33301 1.33301 -22 3.33301 -38 6c-0.666992 0 -1.33398 1 -2.00098 3l-1 2
c4 1.33301 6.33301 2 7 2c13.333 -2 28.333 2.33301 45 13l3 6c-4.66699 -1.33301 -12.334 -3.83301 -23.001 -7.5s-18.667 -6.5 -24 -8.5c0 1.33301 -0.333008 2.33301 -1 3zM250 210.994c-3.33301 0 -5.33301 0.334961 -6 1.00195c-8 1.33301 -9.66699 5.33301 -5 12
c3.33301 5.33301 6.66602 9.66602 9.99902 12.999c4 3.33301 9.5 4.16602 16.5 2.49902s11.5 -4.83398 13.5 -9.50098c0.666992 -2.66699 0.333984 -4.66699 -0.999023 -6c-10.667 -9.33301 -20 -13.666 -28 -12.999zM270 219.996l2.50195 2.49902c1 1 2 1.83301 3 2.5
s1.83301 1.66699 2.5 3c-9.33301 8 -16.333 11.333 -21 10c-6 -1.33301 -12.333 -8.66602 -19 -21.999c5.33301 -0.666992 11.666 -1.66699 18.999 -3c-6 9.33301 -6.33301 15.333 -1 18s9.66602 0 12.999 -8zM271.002 256.995c-8.66699 0 -15.332 -0.333008 -19.999 -1
s-10.167 -2.66699 -16.5 -6s-11.833 -7.66602 -16.5 -12.999c0.666992 10 7.66699 18.333 21 25c2 1.33301 4.16699 2.16602 6.5 2.49902s4.66602 0.333008 6.99902 0s4.33301 -0.833008 6 -1.5s4 -1.66699 7 -3s4.83301 -2.33301 5.5 -3zM347.004 283.995
c-2.66699 0.666992 -5.16797 1.16992 -7.50098 1.50293s-4.66602 0.166016 -6.99902 -0.500977s-4.16602 -1.16699 -5.49902 -1.5s-3 -1.5 -5 -3.5l-4 -4c-0.666992 -0.666992 -2 -2.33398 -4 -5.00098s-3.33301 -4.33398 -4 -5.00098c-2 4 -1.33301 9.16699 2 15.5
s7.66602 10.833 12.999 13.5c8.66699 4.66699 16 1 22 -11zM356.003 253.998c-8.66699 -11.333 -17.3311 -16.335 -25.998 -15.002c-3.33301 0.666992 -6.33301 2.33398 -9 5.00098s-3.66699 5.33398 -3 8.00098c0.666992 4.66699 3.16699 8.5 7.5 11.5
s8.16602 3.83301 11.499 2.5c1.33301 -0.666992 7.66602 -4.66699 18.999 -12zM350.006 250.996c-1.33301 3.33301 -2 5.33301 -2 6c-5.33301 7.33301 -11.333 9 -18 5c-6 -2.66699 -8.66699 -6.33398 -8 -11.001c0 -1.33301 0.5 -2.66602 1.5 -3.99902
s2.16699 -2.5 3.5 -3.5s2.33301 -1.83301 3 -2.5c3.33301 9.33301 5.33301 14 6 14zM192.006 126.996c-4.66699 -4 -10.999 -3.66797 -18.999 0.999023c-4.66699 3.33301 -8.16699 9.5 -10.5 18.5s-2.5 16.833 -0.5 23.5c0 -2 0.333008 -5.5 1 -10.5s1.16699 -8.5 1.5 -10.5
s1.16602 -4.83301 2.49902 -8.5s3 -6.16699 5 -7.5s4.66699 -2.66602 8 -3.99902s7.33301 -2 12 -2zM218.007 73.9951l49 -41c-5.33301 1.33301 -14 7 -26 17s-19.667 18 -23 24zM297.007 233.995c7.33301 -12.667 9 -23.999 5 -33.999c-2 11.333 -3.66699 22.666 -5 33.999
zM237.007 91.9961c2.66699 -2.66699 8.00098 -6.83301 16.001 -12.5l19 -13.5c-10.667 3.33301 -22.334 12 -35.001 26zM270.008 219.997l8.00098 7.99902c-9.33301 8 -16.333 11.333 -21 10c-6 -1.33301 -12.333 -8.66602 -19 -21.999
c2.66699 -0.666992 6 -1.16699 10 -1.5s7 -0.833008 9 -1.5c-6 9.33301 -6.33301 15.333 -1 18s9.66602 0 12.999 -8zM350.009 250.996c-1.33301 3.33301 -2 5.33398 -2 6.00098c-5.33301 7.33301 -11.333 9 -18 5c-6 -2.66699 -8.66699 -6.33398 -8 -11.001
c0 -1.33301 0.333008 -2.5 1 -3.5s1.83398 -2.16699 3.50098 -3.5s2.83398 -2.33301 3.50098 -3c3.33301 9.33301 5.16602 14 5.49902 14s5.16602 -1.33301 14.499 -4z" />
    <glyph glyph-name="oem" unicode="&#xf14e;" 
d="M2 -7v227h267v-227h-97v-14h14v-25h-103v25h13v14h-94zM27 195v-146h217v146h-217zM510 115h-84l-1 -24h12v-22h-89v22h11v24h-82v195h233v-195zM300 163h188v126h-188v-126zM145 234l-25.999 -0.000976562c0 38 0.666992 60 2 66
c2.66699 11.333 8.33398 23.5 17.001 36.5s18 22.5 28 28.5c12.667 8.66699 27.667 13.834 45 15.501s33.666 -1.5 48.999 -9.5l7 34l55 -60l-75 -33l7 32c-24.667 16 -49.334 16 -74.001 0c-6 -4.66699 -11.833 -10.5 -17.5 -17.5s-10 -14.833 -13 -23.5
s-4.5 -16.667 -4.5 -24v-8v-37z" />
    <glyph glyph-name="offline-snapshots" unicode="&#xf14f;" 
d="M310 326c4.66699 22.667 16.666 41.998 35.999 57.998s40.666 24 63.999 24c28 0 52 -10 72 -30s30 -44 30 -72v-1v-4v-305c0 -11.333 -2.16699 -18.166 -6.5 -20.499s-14.166 -3.5 -29.499 -3.5l-433 -1c-19.333 0 -31.166 2 -35.499 6s-6.5 17 -6.5 39v265
c0 22.667 2 35.834 6 39.501s16 5.5 36 5.5h267zM488.999 304.998c0 22 -7.66699 40.667 -23 56s-34 23 -56 23s-40.667 -7.66699 -56 -23s-23 -34 -23 -56c0 -14 3.5 -27.167 10.5 -39.5s16.5 -22 28.5 -29s25.333 -10.5 40 -10.5c22 0 40.667 7.66699 56 23s23 34 23 56z
M41.499 167.998c-5 0 -9.16797 -1.66602 -12.501 -4.99902s-5 -7.33301 -5 -12c0 -3.33301 0.833008 -6.33301 2.5 -9s3.83398 -4.83398 6.50098 -6.50098s5.66699 -2.5 9 -2.5c4.66699 0 8.66699 1.66699 12 5s5 7.5 5 12.5s-1.66699 9.16699 -5 12.5s-7.5 5 -12.5 5z
M78.998 300.999l-0.000976562 -305h405v238c-6 -5.33301 -13.167 -10.5 -21.5 -15.5s-17.166 -8.83301 -26.499 -11.5s-18 -4 -26 -4c-27.333 0 -51 9.5 -71 28.5s-30.333 42.167 -31 69.5h-229zM416.997 267.999c0.666992 -0.666992 1.00098 -1.33301 1.00098 -2
s-0.333008 -1.33398 -1 -2.00098l-7 -6c-0.666992 -0.666992 -1.33398 -1 -2.00098 -1s-1 0.333008 -1 1l-7 7c-0.666992 0.666992 -1 1.33398 -1 2.00098s0.333008 1 1 1c2 2 4.66699 3 8 3s6.33301 -1 9 -3zM447.998 296l-7.99902 -7
c-8.66699 10.667 -19.334 16 -32.001 16s-23.667 -5 -33 -15l-7 7c12 11.333 25.333 17 40 17s28 -6 40 -18zM430.999 279l-5.00195 -5.00195c-10.667 12 -22.667 12.667 -36 2l-5 5c6.66699 6.66699 14.334 9.83398 23.001 9.50098s16.334 -4.16602 23.001 -11.499z
M455.997 341.998c5.33301 0 9.83301 -1.99902 13.5 -5.99902s5.5 -8.66699 5.5 -14s-1.83301 -10 -5.5 -14s-8.16699 -6 -13.5 -6s-10 1.83301 -14 5.5s-6 8.16699 -6 13.5c-27.333 13.333 -53 8.66602 -77 -14.001l-7 7c12 11.333 25.833 18.5 41.5 21.5
s30.5 1.5 44.5 -4.5c3.33301 7.33301 9.33301 11 18 11zM466.997 311.999l-10 10l10 10l-1 2l-10 -10l-10 10l-2 -2l10 -10l-10 -10l2 -2l10 10l10 -10zM243.997 211.999h-141v33h141v-32v-1zM339.997 153.999h-237v33h237v-33zM445.997 92.999v1h-343v32h343v-33z
M366.997 26.999h-264v33h264v-33z" />
    <glyph glyph-name="online-classes" unicode="&#xf150;" 
d="M359 219l-26 -21l40 -30l-12 -16l-40 30l-13 -31l-64 101zM2 73h508v-37h-508v37zM59 359h394v-265h-394v265zM428 124v212h-344v-212h344z" />
    <glyph glyph-name="people" unicode="&#xf151;" 
d="M1 34c0 12 8.16895 23.334 24.502 34.001s35.166 20.5 56.499 29.5s34.333 15.833 39 20.5c1.33301 1.33301 2.66602 3 3.99902 5c0.666992 1.33301 1 3.33301 1 6v10v6l-1 1c-3.33301 2 -6 4.66699 -8 8c-13.333 16 -22.333 38.333 -27 67
c-2.66699 19.333 -3.33398 36.333 -2.00098 51c1.33301 10 4 19.667 8 29c1.33301 3.33301 3 7 5 11c7.33301 12.667 17.333 22.667 30 30c3.33301 2 6.33301 3.66699 9 5c8.66699 3.33301 17.667 5 27 5c4 0 8 -0.333008 12 -1c20.667 -3.33301 37.334 -14.333 50.001 -33
c10 -14 15.667 -29.333 17 -46c0.666992 -4 1 -7.66699 1 -11v-2v-2c0 -14 -1.33301 -28.333 -4 -43c-4.66699 -23.333 -12.334 -42.333 -23.001 -57c-2 -2.66699 -4.33301 -5.33398 -7 -8.00098l-3 -3v-8v-10c0 -4 1.66699 -7.33301 5 -10
c0.666992 0 4.33398 -1.33301 11.001 -4c36 -14 63 -28 81 -42s27 -26.333 27 -37v-2h-333v1v0zM363.002 34.001c0 6.66699 -1.99805 14.166 -5.99805 22.499s-11.167 16.5 -21.5 24.5s-22.166 13.667 -35.499 17h-2l1 1l11 5l11 4c2 2 3.33301 4.33301 4 7
c0.666992 0.666992 1 4 1 10v7l-2 1c-1.33301 2 -3.33301 4 -6 6c-6.66699 8.66699 -12.334 19.334 -17.001 32.001c-4.66699 14.667 -7.66699 32 -9 52v10.5v8.5c1.33301 12 4.66602 23.333 9.99902 34c8.66699 17.333 21 29 37 35c8 3.33301 16 5 24 5
c5.33301 0 10.333 -0.666992 15 -2c15.333 -4 28 -12.667 38 -26l8 -12c5.33301 -11.333 8.33301 -23.333 9 -36v-6.5v-8.5c-1.33301 -33.333 -8.33301 -59.333 -21 -78c-2.66699 -4 -5.66699 -7.66699 -9 -11l-2 -3v-6v-9v-4c0.666992 -2 1.66699 -3.33301 3 -4l2 -2l8 -4
c29.333 -12 50 -21 62 -27c3.33301 -1.33301 6.66602 -3 9.99902 -5c16 -11.333 24.333 -24 25 -38v-2h-148v2v0z" />
    <glyph glyph-name="play" unicode="&#xf152;" 
d="M215 306l113 -113l-113 -114v227zM512 192c0 -70.667 -25 -131 -75 -181s-110.333 -75 -181 -75s-131 25 -181 75s-75 110.333 -75 181s25 131 75 181s110.333 75 181 75s131 -25 181 -75s75 -110.333 75 -181zM485 192c0 63.333 -22.333 117.333 -67 162
s-98.667 67 -162 67c-31.333 0 -61 -6 -89 -18s-52.333 -28.333 -73 -49s-37 -45 -49 -73s-18 -57.667 -18 -89c0 -63.333 22.333 -117.333 67 -162s98.667 -67 162 -67s117.333 22.333 162 67s67 98.667 67 162z" />
    <glyph glyph-name="poll" unicode="&#xf153;" 
d="M478 399v-459h-68v459h68zM288 -60v344h68v-344h-68zM162 -60v229h68v-229h-68zM24 -60v115h69v-115h-69z" />
    <glyph glyph-name="press-release" unicode="&#xf154;" 
d="M62 374h431v-364h-431h-46v307h46v57zM62 35v257h-21v-257h21zM468 35v314h-381v-314h381zM256 292v-124h-124v124h124zM231 193v74h-73v-74h73zM430 267h-134v25h134v-25zM430 208h-134v25h134v-25zM430 148h-134v25h134v-25zM133 114h297v-25h-297v25z" />
    <glyph glyph-name="proven-roadmap" unicode="&#xf155;" 
d="M250 261h40c10.667 0 16 -5.33301 16 -16v-51c-0.666992 -10.667 -6 -16 -16 -16h-80c-10 0 -15 5.33301 -15 16c-0.666992 16.667 -0.666992 33.667 0 51c0 10.667 5.33301 16 16 16h39zM454 5h-39c-11.333 0 -17 5.66699 -17 17v50c0 10.667 5.33301 16 16 16h79
c10.667 0 16 -5.33301 16 -16v-51c0 -10.667 -5 -16 -15 -16h-40zM57 354h-40c-10.667 0.666992 -16 6 -16 16v52c0 10.667 5.33301 16 16 16h80c10 0 15 -5.33301 15 -16v-52c0 -10.667 -5.33301 -16 -16 -16h-39zM484 215h-110.999l69 -71
c2 -1.33301 3 -3.66602 3 -6.99902c0 -6 -3.33301 -9 -10 -9c-2.66699 0 -5 1 -7 3l-92 92l92 91c2 2 4.33301 3 7 3s4.83398 -0.833008 6.50098 -2.5s2.5 -3.83398 2.5 -6.50098s-0.666992 -5 -2 -7l-69 -69h62c33.333 0 50.666 0.333008 51.999 1c4.66699 0 7 2.66699 7 8
v36v25v38c1.33301 33.333 -2.33398 50 -11.001 50h-302v17h303c8 0 14.5 -2.5 19.5 -7.5s7.5 -11.5 7.5 -19.5v-138c0 -8 -2.5 -14.5 -7.5 -19.5s-11.5 -7.5 -19.5 -7.5zM293.001 49h-263.002c-5.33301 0 -8.66602 3.33301 -9.99902 10s-1.66602 20 -0.999023 40v37v26
c0 21.333 0.333008 33.333 1 36c0 5.33301 2 8 6 8h52l62 1l1 17h-112c-8 0 -14.5 -2.5 -19.5 -7.5s-7.5 -11.5 -7.5 -19.5v-138c0 -8 2.5 -14.5 7.5 -19.5s11.833 -7.5 20.5 -7.5h264l-69 -70c-2 -1.33301 -3 -3.33301 -3 -6s1 -5 3 -7s4.33301 -3 7 -3s5 1 7 3l91 91
l-91 93c-2 2 -4.33301 3 -7 3c-6.66699 0 -10 -3.33301 -10 -10c0 -2.66699 1 -5 3 -7l69 -70h-1z" />
    <glyph glyph-name="query-without-code" unicode="&#xf156;" 
d="M92 292c-8 4 -15.665 8.66699 -22.998 14v-197c38 -34 82 -51 132 -51v-29c-18 0 -35.833 2.16699 -53.5 6.5s-32.167 9.33301 -43.5 15s-22 12 -32 19s-16.667 12.167 -20 15.5l-8 8l-5 4v257v1v1c0 26 17.667 47.333 53 64c31.333 15.333 68.666 23 111.999 23
s80.666 -7.66699 111.999 -23c34.667 -16 52 -37.333 52 -64c0 -2 -0.333008 -3.66699 -1 -5v-159h-27v114c-13.333 -8 -21 -12.667 -23 -14c-31.333 -14.667 -68.833 -22 -112.5 -22s-81.167 7.33301 -112.5 22zM69.002 358l0.000976562 -2.99902
c2 -13.333 14 -25.333 36 -36c27.333 -13.333 60.666 -20 99.999 -20c38.667 0 71.667 6.66699 99 20c20.667 9.33301 32.667 20.666 36 33.999v7h-1c-2 12.667 -13.667 24 -35 34c-26.667 13.333 -60 20 -100 20c-38.667 0 -71.667 -6.66699 -99 -20
c-22 -10.667 -34 -22.667 -36 -36zM483.003 68.001v-25h-103v-103h-25v103h-102v25h102v102h25v-102h103z" />
    <glyph glyph-name="quickstart-guide" unicode="&#xf157;" 
d="M256 318h1.5h0.5l252 71c2 0 3 -0.666992 3 -2v-375c0 -1.33301 -0.666992 -2 -2 -2l-253 -72h-1l-254 72c-1.33301 0 -2 0.666992 -2 2v375c0 1.33301 1 2 3 2zM239 -26c2 0 3 0.666992 3 2v313c0 1.33301 -0.666992 2.33301 -2 3l-206 58c-2 0 -3 -1 -3 -3v-312
c0 -1.33301 0.666992 -2.33301 2 -3zM481 32c1.33301 0.666992 2 1.66699 2 3v312c0 2 -1 3 -3 3l-205 -58c-1.33301 -0.666992 -2 -1.66699 -2 -3v-313c0 -1.33301 1 -2 3 -2z" />
    <glyph glyph-name="quotes-closed-style2" unicode="&#xf158;" 
d="M512 380v-194l-106 -183h-103l59 164h-77v213h227zM0 167v213h227v-194l-106 -183h-102l58 164h-77z" />
    <glyph glyph-name="quotes-closed" unicode="&#xf159;" 
d="M249 281c4 -20.667 5.66699 -39.334 5 -56.001c-0.666992 -24 -4.33398 -48 -11.001 -72c-6 -22 -14.667 -43 -26 -63c-10.667 -19.333 -23 -37.333 -37 -54c-14 -15.333 -29 -29.666 -45 -42.999c-14.667 -12 -30.334 -23 -47.001 -33c-15.333 -8.66699 -31 -16 -47 -22
l-40 38c26 12.667 49 30.834 69 54.501s34.5 48.667 43.5 75s13.667 51.833 14 76.5s-6.16699 46.167 -19.5 64.5s-32.666 29.833 -57.999 34.5v41l70 119c25.333 -8.66699 47.333 -22.334 66 -41.001c16.667 -16.667 30.334 -35.667 41.001 -57
c10 -19.333 17.333 -40 22 -62zM506 281c4 -20.667 5.66895 -39.334 5.00195 -56.001c-0.666992 -24 -4.33398 -48 -11.001 -72c-6.66699 -22 -15.334 -43 -26.001 -63c-10.667 -19.333 -23.334 -37.333 -38.001 -54c-13.333 -15.333 -28 -29.666 -44 -42.999
c-15.333 -12 -31.333 -23 -48 -33c-14.667 -8.66699 -30 -16 -46 -22l-40 38c25.333 12.667 48.166 30.834 68.499 54.501s35 48.667 44 75s13.667 51.833 14 76.5s-6.16699 46.167 -19.5 64.5s-32.666 29.833 -57.999 34.5v41l69 119
c26 -8.66699 48.333 -22.334 67 -41.001c16.667 -16.667 30.334 -35.667 41.001 -57c10 -19.333 17.333 -40 22 -62z" />
    <glyph glyph-name="quotes-open-style2" unicode="&#xf15a;" 
d="M150 217h77v-213h-227v195l106 182h102zM435 217h77v-213h-227v195l106 182h101z" />
    <glyph glyph-name="quotes-open" unicode="&#xf15b;" 
d="M462 98l0.000976562 -40.001l-69 -120c-26 8.66699 -48.333 22.334 -67 41.001c-16.667 16.667 -30.334 35.667 -41.001 57c-10 19.333 -17.333 40 -22 62c-4 20.667 -5.66699 39.334 -5 56.001c0.666992 24 4.33398 48 11.001 72c6.66699 22 15.334 43 26.001 63
c10.667 19.333 23 37 37 53s29 30.667 45 44c15.333 12 31.333 23 48 33c14.667 8.66699 30 16 46 22l40 -38c-25.333 -12.667 -48 -30.834 -68 -54.501s-34.5 -48.667 -43.5 -75s-13.833 -51.833 -14.5 -76.5s5.66602 -46.167 18.999 -64.5s32.666 -29.833 57.999 -34.5z
M254.001 402.999c-25.333 -12.667 -48.001 -30.834 -68.001 -54.501s-34.5 -48.667 -43.5 -75s-13.833 -51.833 -14.5 -76.5s5.66602 -46.167 18.999 -64.5s32.666 -29.833 57.999 -34.5v-40l-69 -120c-26 9.33301 -48 23 -66 41c-16.667 16.667 -30.667 35.667 -42 57
c-10 19.333 -17 40 -21 62c-4.66699 20.667 -6.66699 39.334 -6 56.001c0.666992 24 4.33398 48 11.001 72c6.66699 22 15.334 43 26.001 63c10.667 19.333 23.334 37 38.001 53c13.333 16 28 30.667 44 44c15.333 12 31.333 23 48 33c14.667 8.66699 30 16 46 22z" />
    <glyph glyph-name="refresh" unicode="&#xf15c;" 
d="M183 -64l-25.498 60.502c-17 40.333 -25.333 60.666 -25 60.999s20.5 9 60.5 26s60.167 25.333 60.5 25s-3.5 -10.166 -11.5 -29.499s-11.833 -29 -11.5 -29s2.16602 -0.333008 5.49902 -1c23.333 -5.33301 47.333 -4.33301 72 3
c15.333 4.66699 28.666 10.334 39.999 17.001c16.667 11.333 31 26.333 43 45c22.667 34 29 71.333 19 112c-2 7.33301 -4 13.666 -6 18.999c-0.666992 1.33301 -0.833984 2.16602 -0.500977 2.49902s4.83301 2.33301 13.5 6l26 11l13 5.5c1.33301 0 4.33301 -9 9 -27
c7.33301 -29.333 9 -57.666 5 -84.999c-5.33301 -34.667 -20 -67 -44 -97c-8 -9.33301 -16.333 -18 -25 -26c-11.333 -8.66699 -22.666 -16.334 -33.999 -23.001c-44.667 -25.333 -95.334 -31.333 -152.001 -18l-7 2l-12 -29l-5 -11.5c-1.33301 -3 -2.5 -5.83301 -3.5 -8.5
s-1.66699 -4.66699 -2 -6s-0.666016 -2.33301 -0.999023 -3s-0.833008 -1.33398 -1.5 -2.00098v0zM55.002 114.502c0 0.333008 -1 3.16504 -3 8.49805c-12 37.333 -15 73.333 -9 108c6.66699 40 25.334 75.333 56.001 106c6.66699 6.66699 14.334 13.334 23.001 20.001
c18 13.333 36.667 23.333 56 30c38 12.667 78.333 13.334 121 2.00098c3.33301 -0.666992 5 -0.833984 5 -0.500977s4 10.333 12 30s12.167 29.5 12.5 29.5s9 -20.167 26 -60.5s25.333 -60.666 25 -60.999s-20.5 -8.83301 -60.5 -25.5s-60.167 -25 -60.5 -25
s3.5 9.5 11.5 28.5s12 28.833 12 29.5c0 1.33301 -8.33301 3 -25 5c-12 0.666992 -24.333 -0.333008 -37 -3c-17.333 -2.66699 -33.666 -8.33398 -48.999 -17.001c-4.66699 -2.66699 -9.33398 -5.66699 -14.001 -9c-34.667 -28 -54.334 -61.333 -59.001 -100
c-0.666992 -4 -0.833984 -9.66699 -0.500977 -17s0.5 -13 0.5 -17c2 -13.333 5 -25 9 -35c1.33301 -2.66699 2 -4.16699 2 -4.5s-8.83301 -4.16602 -26.5 -11.499s-26.667 -11 -27 -11s-0.5 0.166992 -0.5 0.5z" />
    <glyph glyph-name="reminder" unicode="&#xf15d;" 
d="M14 314l-12 12c-2 1.33301 -2 2.66602 0 3.99902l92 93c1.33301 1.33301 2.66602 1.33301 3.99902 0l12 -13c2 -1.33301 2 -2.66602 0 -3.99902l-92 -92c-1.33301 -2 -2.66602 -2 -3.99902 0zM64 303c-1.33301 -1.33301 -2.66699 -1.33301 -4 0l-13 12
c-1.33301 1.33301 -1.33301 3 0 5l59 59c2 1.33301 3.66699 1.33301 5 0l12 -12c1.33301 -2 1.33301 -3.66699 0 -5zM497.999 314c-1.33301 -2 -2.66602 -2 -3.99902 0l-92 92c-2 1.33301 -2 2.66602 0 3.99902l12 13c1.33301 1.33301 2.66602 1.33301 3.99902 0l92 -93
c2 -1.33301 2 -2.66602 0 -3.99902zM248.999 142h10c4.66699 0 7 2.33301 7 7v105c0 4 -2.33301 6 -7 6h-10c-4.66699 0 -7 -2 -7 -6v-105c0 -4.66699 2.33301 -7 7 -7zM265.999 149c0 -4.66699 -2.33301 -7 -7 -7h-73c-4.66699 0 -7 2.33301 -7 7v10
c0 4.66699 2.33301 7 7 7h73c4.66699 0 7 -2.33301 7 -7v-10zM451.999 303c-1.33301 -1.33301 -2.66699 -1.33301 -4 0l-59 59c-1.33301 1.33301 -1.33301 3 0 5l12 12c1.33301 1.33301 3 1.33301 5 0l59 -59c1.33301 -2 1.33301 -3.66699 0 -5zM353.998 22l18.999 -34
c4 -6 3 -10.667 -3 -14l-22 -12c-6 -4 -10.667 -2.66699 -14 4l-20 34c-19.333 -7.33301 -39.333 -11 -60 -11s-41 3.66699 -61 11l-20 -35c-3.33301 -6 -8 -7 -14 -3l-21 12c-6 3.33301 -7.33301 8 -4 14l20 34c-21.333 15.333 -38 34.833 -50 58.5s-18 49.167 -18 76.5
c0 30.667 7.66699 59 23 85l-3 3l-14 14c-4 4 -6 8.83301 -6 14.5s2 10.5 6 14.5l43 43c4 4 8.83301 6 14.5 6s10.5 -2 14.5 -6l14 -14c2 -2 3.66699 -4.66699 5 -8c22 10 45.667 15 71 15s49.333 -5.33301 72 -16c0.666992 3.33301 2.33398 6.33301 5.00098 9l14 14
c4 4 8.83301 6 14.5 6s10.5 -2 14.5 -6l43 -43c4 -4 6 -8.83301 6 -14.5s-2 -10.5 -6 -14.5l-14 -14c-1.33301 -1.33301 -3 -2.33301 -5 -3c16 -26.667 24 -55 24 -85c-0.666992 -27.333 -7 -52.833 -19 -76.5s-28.333 -43.167 -49 -58.5zM253.497 16
c39 0 72.167 13.666 99.5 40.999s41 60.5 41 99.5s-13.667 72.167 -41 99.5s-60.333 41 -99 41c-26 0 -49.667 -6.16699 -71 -18.5s-38.333 -29.333 -51 -51s-19 -45.167 -19 -70.5c0 -39.333 13.667 -72.666 41 -99.999s60.5 -41 99.5 -41z" />
    <glyph glyph-name="report-abuse" unicode="&#xf15e;" 
d="M2 192c0 70 24.833 129.833 74.5 179.5s109.5 74.5 179.5 74.5s129.833 -24.833 179.5 -74.5s74.5 -109.5 74.5 -179.5s-24.833 -129.833 -74.5 -179.5s-109.5 -74.5 -179.5 -74.5s-129.833 24.833 -179.5 74.5s-74.5 109.5 -74.5 179.5zM235 98l-6 269h54l-6 -269h-42z
M226 33c0 8.66699 2.83301 15.834 8.5 21.501s12.834 8.5 21.501 8.5s15.834 -2.83301 21.501 -8.5s8.5 -12.834 8.5 -21.501s-2.83301 -15.834 -8.5 -21.501s-12.834 -8.5 -21.501 -8.5s-15.834 2.83301 -21.501 8.5s-8.5 12.834 -8.5 21.501z" />
    <glyph glyph-name="reseller" unicode="&#xf15f;" 
d="M363 247c0 17.333 -15.333 31.6689 -46 43.002c-42.667 14 -64 35.667 -64 65c0 30.667 19.333 48.667 58 54v36h26v-35c12.667 0 27.667 -3.33301 45 -10v-28c-19.333 9.33301 -37.333 14 -54 14c-10 0 -18.333 -1.5 -25 -4.5s-11.334 -6.83301 -14.001 -11.5
s-4 -9.33398 -4 -14.001c0 -9.33301 3.66699 -16.833 11 -22.5s20.333 -11.834 39 -18.501c22 -8 38.167 -17 48.5 -27s15.5 -23 15.5 -39c0 -14.667 -5.66699 -27.667 -17 -39s-27.333 -18.666 -48 -21.999v-37h-25v36c-19.333 0.666992 -38 6.66699 -56 18v25
c20.667 -12 41.334 -18 62.001 -18c6.66699 0 13.167 0.833008 19.5 2.5s11.5 4 15.5 7s7.16699 6.66699 9.5 11s3.5 9.16602 3.5 14.499zM466 232.003h1c12.667 0 23.5 -4.5 32.5 -13.5s13.5 -19.833 13.5 -32.5s-4.5 -23.5 -13.5 -32.5s-19.833 -13.5 -32.5 -13.5
c-8 0 -15.667 2 -23 6l-78 -83c3.33301 -6.66699 5 -13.667 5 -21c0 -12.667 -4.5 -23.5 -13.5 -32.5s-19.833 -13.5 -32.5 -13.5s-23.5 4.5 -32.5 13.5s-13.5 19.833 -13.5 32.5c0 2.66699 0.333008 5.66699 1 9l-65 44c-8.66699 -8 -19 -12 -31 -12c-10.667 0 -20 3 -28 9
l-66 -69c1.33301 -4 2 -8 2 -12c0 -12.667 -4.5 -23.5 -13.5 -32.5s-20 -13.5 -33 -13.5s-24 4.5 -33 13.5s-13.5 19.833 -13.5 32.5s4.5 23.5 13.5 32.5s19.833 13.5 32.5 13.5c10.667 0 20 -3 28 -9l66 70c-0.666992 3.33301 -1 7 -1 11c0 12.667 4.5 23.5 13.5 32.5
s19.833 13.5 32.5 13.5s23.5 -4.5 32.5 -13.5s13.5 -19.833 13.5 -32.5c0 -2.66699 -0.333008 -5.66699 -1 -9l65 -44c8.66699 8 19 12 31 12c6.66699 0 13 -1.33301 19 -4l80 84c-2.66699 5.33301 -4 11.333 -4 18c0 12.667 4.5 23.5 13.5 32.5s19.833 13.5 32.5 13.5z" />
    <glyph glyph-name="resources" unicode="&#xf160;" 
d="M502 298c1.33301 -1.33301 2.50098 -2.83105 3.50098 -4.49805s1.83301 -3.33398 2.5 -5.00098l2 -5c0.666992 -1.66699 1 -3.16699 1 -4.5s0.166992 -2.83301 0.5 -4.5s0.5 -3 0.5 -4s-0.166992 -2 -0.5 -3s-0.5 -1.83301 -0.5 -2.5v-268c0 -8 -3.16699 -15 -9.5 -21
s-13.166 -9 -20.499 -9h-451c-8 0 -15 3.16699 -21 9.5s-9 13.166 -9 20.499v271c0 14 2.66699 24 8 30l82 81v9c0 7.33301 3.16699 14.166 9.5 20.499s13.166 9.5 20.499 9.5h271c7.33301 0 14.166 -3.16699 20.499 -9.5s9.5 -13.166 9.5 -20.499v-9zM60.001 298.002v9
l-9 -9h9zM90.001 328.002v-30h331v30h-331zM451.001 307.002v-9h9zM120.001 388.002v-30h271v30h-271zM481.001 -2.99805v271h-451v-271h451zM346.001 238.002c12 0 22.5 -4.5 31.5 -13.5s13.5 -19.667 13.5 -32s-4.5 -23 -13.5 -32s-19.5 -13.5 -31.5 -13.5h-181
c-12 0 -22.5 4.5 -31.5 13.5s-13.5 19.5 -13.5 31.5c0 6 1.16699 11.833 3.5 17.5s5.5 10.5 9.5 14.5s8.83301 7.33301 14.5 10s11.5 4 17.5 4h181zM346.001 178.002c10 0 15 5 15 15s-5 15 -15 15h-181c-10 0 -15 -5 -15 -15s5 -15 15 -15h181z" />
    <glyph glyph-name="results-up" unicode="&#xf161;" 
d="M497 288l-40 29l-97 -137l-26 -36l-151 106l-133 -189l-37 26l159 226v0l152 -107l96 137l-43 30l135 55zM0 7h512v-51h-512v51z" />
    <glyph glyph-name="scalable" unicode="&#xf162;" 
d="M205 147l6.99902 -7.99902l-74 -74h56c3.33301 -0.666992 4.83301 -2.83398 4.5 -6.50098s-2.16602 -5.16699 -5.49902 -4.5h-74v73c0 4 1.83301 6 5.5 6s5.5 -2 5.5 -6v-55zM217.999 162.001c3.33301 3.33301 6.66699 3.33301 10 0c2.66699 -2.66699 2.5 -5.5 -0.5 -8.5
s-6 -3 -9 0s-3.16699 5.83301 -0.5 8.5v0zM241.5 185.501c3 3 6.16699 3 9.5 0s3.33301 -6.16699 0 -9.5s-6.5 -3.33301 -9.5 0s-3 6.5 0 9.5zM288 232.001c2.66699 2.66699 5.66699 2.66699 9 0c3.33301 -3.33301 3.33301 -6.5 0 -9.5s-6.5 -3 -9.5 0
s-2.83301 6.16699 0.5 9.5v0zM429 448.001l83 -82v-430h-430l-82 81v430c-0 0.666992 0.333008 1 1 1h428zM25 19.001l62 -57v57h-62zM487 -38.999v384h-77v78h-384l-1 -385h77v-77h385zM430 366.001h57l-58 57zM319 327.001c0 3.33301 1.66699 5 5 5h74v-73
c0 -3.33301 -1.83301 -5 -5.5 -5s-5.5 1.66699 -5.5 5v55l-75 -75l-7 8l74 75h-54c-4 0 -6 1.66699 -6 5zM265 209.001c3.33301 3.33301 6.5 3.33301 9.5 0s3 -6.5 0 -9.5s-6.16699 -3 -9.5 0s-3.33301 6.16699 0 9.5v0z" />
    <glyph glyph-name="search" unicode="&#xf163;" 
d="M438 374c40.667 -40.667 61.001 -89.668 61.001 -147.001s-20.333 -106.333 -61 -147c-38 -38.667 -83.833 -59.167 -137.5 -61.5s-100.834 13.5 -141.501 47.5l-1 -1l-118 -118c-4 -4.66699 -9 -7 -15 -7s-11 2 -15 6s-6 9 -6 15s2.33301 11 7 15l118 118l1 1
c-34 40.667 -49.667 87.834 -47 141.501s23 99.5 61 137.5c40.667 40.667 89.667 61 147 61s106.333 -20.333 147 -61zM414.501 102.999c14.333 14 26.5 33.166 36.5 57.499s15 46.5 15 66.5s-5 42 -15 66s-22.167 43.167 -36.5 57.5s-33.5 26.5 -57.5 36.5s-46 15 -66 15
c-48.667 0 -90 -17.167 -124 -51.5s-51 -75.666 -51 -123.999s17 -89.5 51 -123.5s75.333 -51 124 -51c20 0 42 5 66 15s43.167 22 57.5 36z" />
    <glyph glyph-name="security" unicode="&#xf164;" 
d="M94 253c-4.66699 0 -6.99902 2.33301 -6.99902 7c5.33301 50 24.166 93.333 56.499 130s69.833 55 112.5 55c42 0 78.833 -18.167 110.5 -54.5s50.167 -79.833 55.5 -130.5c0 -4.66699 -2.33301 -7 -7 -7h-39c-4 0 -6.33301 2 -7 6c-4.66699 34 -17.667 63.667 -39 89
s-46 38 -74 38c-18.667 0 -36.5 -6 -53.5 -18s-31 -27.667 -42 -47s-17.833 -40 -20.5 -62c-0.666992 -4 -3 -6 -7 -6h-39zM452.001 192l-0.00195312 -235c0 -6 -1.66699 -11 -5 -15s-7.66602 -6 -12.999 -6h-355c-5.33301 0 -9.66602 2 -12.999 6s-5 9 -5 15v235
c0 5.33301 1.83301 10 5.5 14s7.83398 6 12.501 6h355c5.33301 0 9.66602 -2 12.999 -6s5 -8.66699 5 -14zM293.999 126c0 6 -2.66699 9 -8 9h-1h-57c-6 0 -9 -3 -9 -9v-107c0 -6 3 -9 9 -9h57c6 0 9 3 9 9v107z" />
    <glyph glyph-name="self-suffiency" unicode="&#xf165;" 
d="M256 323c22.667 0 42.167 -8 58.5 -24s24.5 -35.5 24.5 -58.5s-8.16699 -42.5 -24.5 -58.5s-35.833 -24 -58.5 -24s-42.167 8 -58.5 24s-24.5 35.5 -24.5 58.5s8.16699 42.5 24.5 58.5s35.833 24 58.5 24zM256 448c70.667 0 131 -25 181 -75s75 -110.333 75 -181
s-25 -131 -75 -181s-110.333 -75 -181 -75s-131 25 -181 75s-75 110.333 -75 181s25 131 75 181s110.333 75 181 75zM410 36c18.667 17.333 34.3359 41.333 47.0029 72s19 58.667 19 84c0 60.667 -21.5 112.5 -64.5 155.5s-94.833 64.5 -155.5 64.5
s-112.5 -21.5 -155.5 -64.5s-64.5 -94.833 -64.5 -155.5c0 -25.333 6.33301 -53.333 19 -84s28 -54.667 46 -72c13.333 26 35.166 48.5 65.499 67.5s60.166 28.5 89.499 28.5s59.166 -9.5 89.499 -28.5s51.833 -41.5 64.5 -67.5z" />
    <glyph glyph-name="series" unicode="&#xf166;" 
d="M152 301h-136v135h136v-135zM113 223h-59v-59h59v59zM152 262v-136h-136v136h136zM113 49h-59v-59h59v59zM152 87v-136h-136v136h136zM493 387v-38h-285v38h285zM493 212v-38h-285v38h285zM493 38v-38h-285v38h285z" />
    <glyph glyph-name="server-admin" unicode="&#xf167;" 
d="M0 392h512v-425h-512v425zM448 371v-14c0 -6 3 -9 9 -9h6c6 0 9 3 9 9v14c0 6 -3 9 -9 9h-6c-6 0 -9 -3 -9 -9zM403 371v-14c0 -6 2.66699 -9 8 -9h7c5.33301 0 8 3 8 9v14c0 6 -2.66699 9 -8 9h-7c-5.33301 0 -8 -3 -8 -9zM357 371v-14c0 -6 3 -9 9 -9h6c6 0 9 3 9 9v14
c0 6 -3 9 -9 9h-6c-6 0 -9 -3 -9 -9zM487 -8v343h-462v-343h462zM107 176l108 55v-16l-91 -46l91 -46v-16l-109 56v13h1zM216 98l65 169h16l-66 -169h-15zM406 163l-109 -56v16l92 46v1l-92 45v16l109 -55v-13z" />
    <glyph glyph-name="settings" unicode="&#xf168;" 
d="M324 200c2 -10.667 2.99902 -21.502 2.99902 -32.502s-1 -21.833 -3 -32.5l-44 1c-2.66699 -9.33301 -6 -18 -10 -26l30 -33c-12.667 -18 -28 -33.333 -46 -46l-33 31c-8 -4 -16.333 -7.33301 -25 -10v-45c-10.667 -2 -21.5 -3 -32.5 -3s-21.833 1 -32.5 3v45
c-8.66699 2.66699 -17 6.33398 -25 11.001l-33 -32c-18 12.667 -33.333 28 -46 46l33 33c-4.66699 8 -8 16.333 -10 25h-47c-2 10.667 -3 21.5 -3 32.5s1 21.833 3 32.5h47c2.66699 8.66699 6 17.334 10 26.001l-33 32c12.667 18 28 33.333 46 46l34 -31
c8 4 16.333 7.33301 25 10l-1 45c10.667 2 21.5 3 32.5 3s21.833 -1 32.5 -3v-45c8.66699 -2.66699 17 -6 25 -10l33 31c18 -12.667 33.333 -28 46 -46l-31 -34c4.66699 -8 8.33398 -16.333 11.001 -25zM163.999 96.998c9.33301 0 18.335 1.83496 27.002 5.50195
s16.167 8.66699 22.5 15s11.333 13.833 15 22.5s5.5 18 5.5 28c0 19.333 -6.83301 35.833 -20.5 49.5s-30.334 20.5 -50.001 20.5s-36.334 -6.83301 -50.001 -20.5s-20.5 -30.334 -20.5 -50.001s6.83301 -36.334 20.5 -50.001s30.5 -20.5 50.5 -20.5zM460.001 298
c-2.66699 -8.66699 -6.99707 -16.334 -12.9971 -23.001l13 -22l-32 -20l-15 23c-3.33301 -0.666992 -6.83301 -1 -10.5 -1s-7.5 0.333008 -11.5 1l-15 -23l-32 20l14 22c-6.66699 6.66699 -11.334 14.334 -14.001 23.001h-28l1 38h27
c3.33301 9.33301 8.66602 17.333 15.999 24l-13 21l32 20l16 -24h7h8l15 24l32 -20l-13 -21c7.33301 -6.66699 12.666 -14.667 15.999 -24h28v-38h-28zM402.004 280c10 0 18.667 3.66699 26 11s11 16 11 26s-3.66699 18.667 -11 26s-16 11 -26 11s-18.667 -3.66699 -26 -11
s-11 -16 -11 -26s3.66699 -18.667 11 -26s16 -11 26 -11zM478.004 30c-3.33301 -10 -8.66797 -19 -16.001 -27l16 -25l-38 -24l-18 27c-4 -0.666992 -8.16699 -1 -12.5 -1s-8.83301 0.333008 -13.5 1l-17 -27l-38 24l16 25c-7.33301 8 -12.666 17 -15.999 27h-33v46l33 -1
c4 11.333 10.333 21 19 29l-16 25l38 24l19 -29h8.5h8.5l18 29l39 -24l-16 -25c8.66699 -8 15 -17.667 19 -29l32 1l1 -46h-33zM409.002 10c12 0 22.333 4.16699 31 12.5s13 18.5 13 30.5s-4.33301 22.333 -13 31s-19 13 -31 13s-22.167 -4.33301 -30.5 -13
s-12.5 -19 -12.5 -31s4.16699 -22.167 12.5 -30.5s18.5 -12.5 30.5 -12.5z" />
    <glyph glyph-name="share-secure" unicode="&#xf169;" 
d="M359 347c-13.333 0 -23.998 -2.33398 -31.998 -7.00098c0 2.66699 -1.33301 9.66699 -4 21c10.667 6 22.667 9 36 9c24 0 44.667 -9.66699 62 -29s26.666 -43.666 27.999 -72.999h-19c-0.666992 15.333 -4.33398 29 -11.001 41s-15.167 21.333 -25.5 28
s-21.833 10 -34.5 10zM277.002 267.999c2.66699 32.667 19.333 56.668 50 72.001l1 -3c2 -24.667 1 -46.334 -3 -65.001l-1 -4h-47zM218.001 47l211.003 -0.00195312c4.66699 0 8.16699 -3.33301 10.5 -10s3.5 -13.334 3.5 -20.001v-79h-443v86
c0 16 11.167 31.167 33.5 45.5s47.666 27.5 75.999 39.5s45.5 21 51.5 27c3.33301 2.66699 4.66602 6.33398 3.99902 11.001v25c-2.66699 2.66699 -6 6.33398 -10 11.001s-10.167 15.667 -18.5 33s-14.5 36 -18.5 56c-3.33301 26 -4 48.333 -2 67
c1.33301 14 4.66602 27 9.99902 39c2 4.66699 4.33301 9.66699 7 15c10 17.333 23 30.666 39 39.999c4.66699 2.66699 9 4.66699 13 6c24.667 9.33301 49 9.33301 73 0c4 -1.33301 7.66699 -3 11 -5c-28 -13.333 -50.667 -32.833 -68 -58.5s-27.333 -53.834 -30 -84.501h37
c2 26 11 50 27 72s37.333 37.333 64 46c4.66699 -5.33301 8.66699 -10.666 12 -15.999l7 -14c0 -0.666992 1.66699 -6.66699 5 -18c-20 -8 -36.167 -20.167 -48.5 -36.5s-19.5 -35.166 -21.5 -56.499h-33c-4.66699 0 -8.5 -1.5 -11.5 -4.5s-4.5 -6.16699 -4.5 -9.5v-192
c0 -3.33301 1.66699 -6.66602 5 -9.99902s6.33301 -5 9 -5zM483.004 235.998v-153c0 -3.33301 -1.16699 -6.33301 -3.5 -9s-5.16602 -4 -8.49902 -4h-232c-3.33301 0 -6.16602 1.33301 -8.49902 4s-3.5 5.66699 -3.5 9v153c0 4 1.16699 7.33301 3.5 10s5.16602 4 8.49902 4
h232c3.33301 0 6.16602 -1.33301 8.49902 -4s3.5 -6 3.5 -10v0zM379.004 193.998c0 3.33301 -1.66699 5 -5 5h-38c-3.33301 0 -5 -1.66699 -5 -5v0v-70c0 -4 1.66699 -6 5 -6h38c3.33301 0 5 2 5 6v0v70z" />
    <glyph glyph-name="share-style2" unicode="&#xf16a;" 
d="M375 122c25.333 0 47.1689 -9.16797 65.502 -27.501s27.5 -40.333 27.5 -66s-9.16699 -47.5 -27.5 -65.5s-40.333 -27 -66 -27s-47.5 9 -65.5 27s-27 40 -27 66c0 12.667 3 25.334 9 38.001l-93 54c-4 -2.66699 -7.66699 -5.33398 -11 -8.00098h-1
c-4.66699 -3.33301 -9.33398 -5.66602 -14.001 -6.99902c-1.33301 -0.666992 -2.33301 -1 -3 -1s-1 -0.333008 -1 -1h-1c-4.66699 -1.33301 -8.33398 -2.33301 -11.001 -3c-6 -1.33301 -12 -2 -18 -2c-26 0 -48 9.16699 -66 27.5s-27 40.166 -27 65.499s9 47.166 27 65.499
s40 27.5 66 27.5c5.33301 0 11.333 -0.666992 18 -2c3.33301 -0.666992 8 -2 14 -4l1 -1h2c9.33301 -4 18.333 -9.66699 27 -17l92 54c-6.66699 12.667 -10 26 -10 40c0 25.333 9 47.166 27 65.499s40 27.5 66 27.5c16.667 0 32.167 -4.16699 46.5 -12.5
s25.666 -19.666 33.999 -33.999s12.5 -29.833 12.5 -46.5c0 -25.333 -9.16699 -47.166 -27.5 -65.499s-40.166 -27.5 -65.499 -27.5c-22.667 0 -42.667 7.66699 -60 23l-93 -55c2 -5.33301 3.66699 -10.333 5 -15v-1c0.666992 0 1 -0.333008 1 -1
c1.33301 -7.33301 2 -14.333 2 -21s-1 -14 -3 -22v-2c-1.33301 -5.33301 -3.33301 -10.666 -6 -15.999l92 -54c17.333 16 38 24 62 24z" />
    </font>
</defs>
</svg>
